<?xml version="1.0" encoding="utf-8"?>
<svg width="567.04346px" height="444px" viewBox="0 0 567.04346 444" version="1.1" xmlns:xlink="http://www.w3.org/1999/xlink" xmlns="http://www.w3.org/2000/svg">
  <defs>
    <linearGradient gradientUnits="userSpaceOnUse" x1="33.624184" y1="444" x2="145.07692" y2="64.158615" id="gradient_1">
      <stop offset="0%" stop-color="#FFFFFF" stop-opacity="0.7490196" />
      <stop offset="100%" stop-color="#FFFFFF" />
    </linearGradient>
    <filter id="filter_1">
      <feColorMatrix in="SourceGraphic" type="matrix" values="0 0 0 0 0.7176471 0 0 0 0 0.7176471 0 0 0 0 0.7176471 0 0 0 1 0" color-interpolation-filters="sRGB" />
    </filter>
    <path d="M0 444L567.043 444L567.043 0L0 0L0 444Z" id="path_1" />
    <clipPath id="mask_1">
      <use xlink:href="#path_1" />
    </clipPath>
  </defs>
  <g id="Rectangle-32-+-Rectangle-13-Copy-Mask-2">
    <path d="M0 444L567.043 444L567.043 0L0 0L0 444Z" id="Mask" fill="#FFFFFF" fill-rule="evenodd" stroke="none" />
    <g clip-path="url(#mask_1)">
      <g id="Group-5" transform="matrix(0.8660254 -0.5 0.5 0.8660254 -226.77965 292.68506)">
        <g id="Group-5-Copy" transform="translate(0.00030517578 228.68115)" filter="url(#filter_1)">
          <g id="Group" transform="translate(-6.1035156E-05 0.00012207031)">
            <path d="M89.4841 17.0449C89.4841 7.63148 97.1152 0.000366211 106.529 0.000366211C115.942 0.000366211 123.573 7.63148 123.573 17.0449C123.573 26.4584 115.942 34.0895 106.529 34.0895C97.1152 34.0895 89.4841 26.4584 89.4841 17.0449Z" id="Oval-Copy-2" fill="#D3D3D3" fill-rule="evenodd" stroke="none" />
            <path d="M134.226 17.0448C134.226 7.63136 141.857 0.000244141 151.271 0.000244141C160.684 0.000244141 168.315 7.63136 168.315 17.0448C168.315 26.4583 160.684 34.0894 151.271 34.0894C141.857 34.0894 134.226 26.4583 134.226 17.0448Z" id="Oval-Copy-3" fill="#D3D3D3" fill-rule="evenodd" stroke="none" />
            <path d="M178.968 17.0449C178.968 7.63148 186.599 0.000366211 196.013 0.000366211C205.426 0.000366211 213.057 7.63148 213.057 17.0449C213.057 26.4584 205.426 34.0895 196.013 34.0895C186.599 34.0895 178.968 26.4584 178.968 17.0449Z" id="Oval-Copy-4" fill="#D3D3D3" fill-rule="evenodd" stroke="none" />
            <path d="M223.71 17.0448C223.71 7.63136 231.341 0.000244141 240.755 0.000244141C250.168 0.000244141 257.799 7.63136 257.799 17.0448C257.799 26.4583 250.168 34.0894 240.755 34.0894C231.341 34.0894 223.71 26.4583 223.71 17.0448Z" id="Oval-Copy-5" fill="#D3D3D3" fill-rule="evenodd" stroke="none" />
            <path d="M268.452 17.0449C268.452 7.63148 276.083 0.000366211 285.496 0.000366211C294.91 0.000366211 302.541 7.63148 302.541 17.0449C302.541 26.4584 294.91 34.0895 285.496 34.0895C276.083 34.0895 268.452 26.4584 268.452 17.0449Z" id="Oval-Copy-6" fill="#D3D3D3" fill-rule="evenodd" stroke="none" />
            <path d="M313.194 17.0446C313.194 7.63111 320.825 0 330.239 0C339.652 0 347.283 7.63111 347.283 17.0446C347.283 26.458 339.652 34.0891 330.239 34.0891C320.825 34.0891 313.194 26.458 313.194 17.0446Z" id="Oval-Copy-7" fill="#D3D3D3" fill-rule="evenodd" stroke="none" />
            <path d="M357.936 17.0447C357.936 7.63124 365.567 0.00012207 374.981 0.00012207C384.394 0.00012207 392.025 7.63124 392.025 17.0447C392.025 26.4581 384.394 34.0893 374.981 34.0893C365.567 34.0893 357.936 26.4581 357.936 17.0447Z" id="Oval-Copy-8" fill="#D3D3D3" fill-rule="evenodd" stroke="none" />
            <path d="M402.678 17.0448C402.678 7.63136 410.309 0.000244141 419.723 0.000244141C429.136 0.000244141 436.767 7.63136 436.767 17.0448C436.767 26.4583 429.136 34.0894 419.723 34.0894C410.309 34.0894 402.678 26.4583 402.678 17.0448Z" id="Oval-Copy-9" fill="#D3D3D3" fill-rule="evenodd" stroke="none" />
            <path d="M447.42 17.0447C447.42 7.63124 455.051 0.00012207 464.465 0.00012207C473.878 0.00012207 481.509 7.63124 481.509 17.0447C481.509 26.4581 473.878 34.0893 464.465 34.0893C455.051 34.0893 447.42 26.4581 447.42 17.0447Z" id="Oval-Copy-10" fill="#D3D3D3" fill-rule="evenodd" stroke="none" />
          </g>
          <g id="Group-Copy" transform="translate(0.00018310547 45.807007)">
            <path d="M178.968 17.0447C178.968 7.63123 186.599 0.00012207 196.013 0.00012207C205.426 0.00012207 213.057 7.63123 213.057 17.0447C213.057 26.4581 205.426 34.0893 196.013 34.0893C186.599 34.0893 178.968 26.4581 178.968 17.0447Z" id="Oval-Copy-4" fill="#D3D3D3" fill-rule="evenodd" stroke="none" />
            <path d="M223.71 17.0448C223.71 7.63136 231.341 0.000244141 240.755 0.000244141C250.168 0.000244141 257.799 7.63136 257.799 17.0448C257.799 26.4583 250.168 34.0894 240.755 34.0894C231.341 34.0894 223.71 26.4583 223.71 17.0448Z" id="Oval-Copy-5" fill="#D3D3D3" fill-rule="evenodd" stroke="none" />
            <path d="M268.452 17.0449C268.452 7.63148 276.083 0.000366211 285.497 0.000366211C294.91 0.000366211 302.541 7.63148 302.541 17.0449C302.541 26.4584 294.91 34.0895 285.497 34.0895C276.083 34.0895 268.452 26.4584 268.452 17.0449Z" id="Oval-Copy-6" fill="#D3D3D3" fill-rule="evenodd" stroke="none" />
            <path d="M313.194 17.0448C313.194 7.63136 320.825 0.000244141 330.239 0.000244141C339.652 0.000244141 347.283 7.63136 347.283 17.0448C347.283 26.4583 339.652 34.0894 330.239 34.0894C320.825 34.0894 313.194 26.4583 313.194 17.0448Z" id="Oval-Copy-7" fill="#D3D3D3" fill-rule="evenodd" stroke="none" />
            <path d="M357.936 17.0447C357.936 7.63123 365.567 0.00012207 374.981 0.00012207C384.394 0.00012207 392.025 7.63123 392.025 17.0447C392.025 26.4581 384.394 34.0893 374.981 34.0893C365.567 34.0893 357.936 26.4581 357.936 17.0447Z" id="Oval-Copy-8" fill="#D3D3D3" fill-rule="evenodd" stroke="none" />
            <path d="M402.678 17.0448C402.678 7.63136 410.309 0.000244141 419.723 0.000244141C429.136 0.000244141 436.767 7.63136 436.767 17.0448C436.767 26.4583 429.136 34.0894 419.723 34.0894C410.309 34.0894 402.678 26.4583 402.678 17.0448Z" id="Oval-Copy-9" fill="#D3D3D3" fill-rule="evenodd" stroke="none" />
            <path d="M447.42 17.0446C447.42 7.63111 455.051 0 464.465 0C473.878 0 481.509 7.63111 481.509 17.0446C481.509 26.458 473.878 34.0891 464.465 34.0891C455.051 34.0891 447.42 26.458 447.42 17.0446Z" id="Oval-Copy-10" fill="#D3D3D3" fill-rule="evenodd" stroke="none" />
          </g>
          <g id="Group-Copy-2" transform="translate(6.1035156E-05 91.614136)">
            <path d="M223.71 17.0448C223.71 7.63136 231.341 0.000244141 240.754 0.000244141C250.168 0.000244141 257.799 7.63136 257.799 17.0448C257.799 26.4583 250.168 34.0894 240.754 34.0894C231.341 34.0894 223.71 26.4583 223.71 17.0448Z" id="Oval-Copy-5" fill="#D3D3D3" fill-rule="evenodd" stroke="none" />
            <path d="M268.452 17.0453C268.452 7.63185 276.083 0.000732422 285.496 0.000732422C294.91 0.000732422 302.541 7.63185 302.541 17.0453C302.541 26.4588 294.91 34.0899 285.496 34.0899C276.083 34.0899 268.452 26.4588 268.452 17.0453Z" id="Oval-Copy-6" fill="#D3D3D3" fill-rule="evenodd" stroke="none" />
            <path d="M313.194 17.0452C313.194 7.63173 320.825 0.000610352 330.238 0.000610352C339.652 0.000610352 347.283 7.63173 347.283 17.0452C347.283 26.4586 339.652 34.0898 330.238 34.0898C320.825 34.0898 313.194 26.4586 313.194 17.0452Z" id="Oval-Copy-7" fill="#D3D3D3" fill-rule="evenodd" stroke="none" />
            <path d="M357.936 17.0451C357.936 7.63161 365.567 0.000488281 374.98 0.000488281C384.394 0.000488281 392.025 7.63161 392.025 17.0451C392.025 26.4585 384.394 34.0896 374.98 34.0896C365.567 34.0896 357.936 26.4585 357.936 17.0451Z" id="Oval-Copy-8" fill="#D3D3D3" fill-rule="evenodd" stroke="none" />
            <path d="M402.678 17.0452C402.678 7.63173 410.309 0.000610352 419.722 0.000610352C429.136 0.000610352 436.767 7.63173 436.767 17.0452C436.767 26.4586 429.136 34.0898 419.722 34.0898C410.309 34.0898 402.678 26.4586 402.678 17.0452Z" id="Oval-Copy-9" fill="#D3D3D3" fill-rule="evenodd" stroke="none" />
            <path d="M447.42 17.0449C447.42 7.63148 455.051 0.000366211 464.464 0.000366211C473.878 0.000366211 481.509 7.63148 481.509 17.0449C481.509 26.4584 473.878 34.0895 464.464 34.0895C455.051 34.0895 447.42 26.4584 447.42 17.0449Z" id="Oval-Copy-10" fill="#D3D3D3" fill-rule="evenodd" stroke="none" />
          </g>
          <g id="Group-Copy-3" transform="translate(0.00012207031 137.42188)">
            <path d="M313.194 17.0452C313.194 7.63172 320.825 0.000610352 330.238 0.000610352C339.652 0.000610352 347.283 7.63172 347.283 17.0452C347.283 26.4586 339.652 34.0898 330.238 34.0898C320.825 34.0898 313.194 26.4586 313.194 17.0452Z" id="Oval-Copy-7" fill="#D3D3D3" fill-rule="evenodd" stroke="none" />
            <path d="M357.936 17.0451C357.936 7.6316 365.567 0.000488281 374.98 0.000488281C384.394 0.000488281 392.025 7.6316 392.025 17.0451C392.025 26.4585 384.394 34.0896 374.98 34.0896C365.567 34.0896 357.936 26.4585 357.936 17.0451Z" id="Oval-Copy-8" fill="#D3D3D3" fill-rule="evenodd" stroke="none" />
            <path d="M402.678 17.0449C402.678 7.63148 410.309 0.000366211 419.722 0.000366211C429.136 0.000366211 436.767 7.63148 436.767 17.0449C436.767 26.4584 429.136 34.0895 419.722 34.0895C410.309 34.0895 402.678 26.4584 402.678 17.0449Z" id="Oval-Copy-9" fill="#D3D3D3" fill-rule="evenodd" stroke="none" />
            <path d="M447.42 17.0452C447.42 7.63172 455.051 0.000610352 464.465 0.000610352C473.878 0.000610352 481.509 7.63172 481.509 17.0452C481.509 26.4586 473.878 34.0898 464.465 34.0898C455.051 34.0898 447.42 26.4586 447.42 17.0452Z" id="Oval-Copy-10" fill="#D3D3D3" fill-rule="evenodd" stroke="none" />
          </g>
          <g id="Group-Copy-4" transform="translate(0.00048828125 183.229)">
            <path d="M402.678 17.0448C402.678 7.63135 410.309 0.000244141 419.722 0.000244141C429.136 0.000244141 436.767 7.63135 436.767 17.0448C436.767 26.4583 429.136 34.0894 419.722 34.0894C410.309 34.0894 402.678 26.4583 402.678 17.0448Z" id="Oval-Copy-9" fill="#D3D3D3" fill-rule="evenodd" stroke="none" />
            <path d="M447.42 17.0448C447.42 7.63135 455.051 0.000244141 464.465 0.000244141C473.878 0.000244141 481.509 7.63135 481.509 17.0448C481.509 26.4583 473.878 34.0894 464.465 34.0894C455.051 34.0894 447.42 26.4583 447.42 17.0448Z" id="Oval-Copy-10" fill="#D3D3D3" fill-rule="evenodd" stroke="none" />
          </g>
        </g>
        <g id="Group-5-Copy-2" transform="translate(6.1035156E-05 -0.00012207031)" filter="url(#filter_1)">
          <g id="Group" transform="translate(-6.1035156E-05 0)">
            <path d="M223.71 17.0448C223.71 7.63136 231.341 0.000244141 240.755 0.000244141C250.168 0.000244141 257.799 7.63136 257.799 17.0448C257.799 26.4583 250.168 34.0894 240.755 34.0894C231.341 34.0894 223.71 26.4583 223.71 17.0448Z" id="Oval-Copy-5" fill="#D3D3D3" fill-rule="evenodd" stroke="none" />
            <path d="M268.452 17.0451C268.452 7.6316 276.083 0.000488281 285.497 0.000488281C294.91 0.000488281 302.541 7.6316 302.541 17.0451C302.541 26.4585 294.91 34.0896 285.497 34.0896C276.083 34.0896 268.452 26.4585 268.452 17.0451Z" id="Oval-Copy-6" fill="#D3D3D3" fill-rule="evenodd" stroke="none" />
            <path d="M313.194 17.0447C313.194 7.63124 320.825 0.00012207 330.239 0.00012207C339.652 0.00012207 347.283 7.63124 347.283 17.0447C347.283 26.4582 339.652 34.0893 330.239 34.0893C320.825 34.0893 313.194 26.4582 313.194 17.0447Z" id="Oval-Copy-7" fill="#D3D3D3" fill-rule="evenodd" stroke="none" />
            <path d="M357.936 17.0448C357.936 7.63136 365.567 0.000244141 374.981 0.000244141C384.394 0.000244141 392.025 7.63136 392.025 17.0448C392.025 26.4583 384.394 34.0894 374.981 34.0894C365.567 34.0894 357.936 26.4583 357.936 17.0448Z" id="Oval-Copy-8" fill="#D3D3D3" fill-rule="evenodd" stroke="none" />
            <path d="M402.678 17.0449C402.678 7.63148 410.309 0.000366211 419.723 0.000366211C429.136 0.000366211 436.767 7.63148 436.767 17.0449C436.767 26.4584 429.136 34.0895 419.723 34.0895C410.309 34.0895 402.678 26.4584 402.678 17.0449Z" id="Oval-Copy-9" fill="#D3D3D3" fill-rule="evenodd" stroke="none" />
            <path d="M447.42 17.0448C447.42 7.63136 455.051 0.000244141 464.465 0.000244141C473.878 0.000244141 481.509 7.63136 481.509 17.0448C481.509 26.4583 473.878 34.0894 464.465 34.0894C455.051 34.0894 447.42 26.4583 447.42 17.0448Z" id="Oval-Copy-10" fill="#D3D3D3" fill-rule="evenodd" stroke="none" />
          </g>
          <g id="Group-Copy" transform="translate(0.00012207031 45.806885)">
            <path d="M223.71 17.0451C223.71 7.6316 231.341 0.000488281 240.754 0.000488281C250.168 0.000488281 257.799 7.6316 257.799 17.0451C257.799 26.4585 250.168 34.0896 240.754 34.0896C231.341 34.0896 223.71 26.4585 223.71 17.0451Z" id="Oval-Copy-5" fill="#D3D3D3" fill-rule="evenodd" stroke="none" />
            <path d="M268.452 17.0451C268.452 7.6316 276.083 0.000488281 285.496 0.000488281C294.91 0.000488281 302.541 7.6316 302.541 17.0451C302.541 26.4585 294.91 34.0896 285.496 34.0896C276.083 34.0896 268.452 26.4585 268.452 17.0451Z" id="Oval-Copy-6" fill="#D3D3D3" fill-rule="evenodd" stroke="none" />
            <path d="M313.194 17.0446C313.194 7.63111 320.825 0 330.239 0C339.652 0 347.283 7.63111 347.283 17.0446C347.283 26.458 339.652 34.0891 330.239 34.0891C320.825 34.0891 313.194 26.458 313.194 17.0446Z" id="Oval-Copy-7" fill="#D3D3D3" fill-rule="evenodd" stroke="none" />
            <path d="M357.936 17.0448C357.936 7.63136 365.567 0.000244141 374.981 0.000244141C384.394 0.000244141 392.025 7.63136 392.025 17.0448C392.025 26.4583 384.394 34.0894 374.981 34.0894C365.567 34.0894 357.936 26.4583 357.936 17.0448Z" id="Oval-Copy-8" fill="#D3D3D3" fill-rule="evenodd" stroke="none" />
            <path d="M402.678 17.0453C402.678 7.63185 410.309 0.000732422 419.722 0.000732422C429.136 0.000732422 436.767 7.63185 436.767 17.0453C436.767 26.4588 429.136 34.0899 419.722 34.0899C410.309 34.0899 402.678 26.4588 402.678 17.0453Z" id="Oval-Copy-9" fill="#D3D3D3" fill-rule="evenodd" stroke="none" />
            <path d="M447.42 17.0449C447.42 7.63148 455.051 0.000366211 464.464 0.000366211C473.878 0.000366211 481.509 7.63148 481.509 17.0449C481.509 26.4584 473.878 34.0895 464.464 34.0895C455.051 34.0895 447.42 26.4584 447.42 17.0449Z" id="Oval-Copy-10" fill="#D3D3D3" fill-rule="evenodd" stroke="none" />
          </g>
          <g id="Group-Copy-2" transform="translate(0 91.6145)">
            <path d="M178.968 17.0448C178.968 7.63136 186.599 0.000244141 196.013 0.000244141C205.426 0.000244141 213.057 7.63136 213.057 17.0448C213.057 26.4583 205.426 34.0894 196.013 34.0894C186.599 34.0894 178.968 26.4583 178.968 17.0448Z" id="Oval-Copy-4" fill="#D3D3D3" fill-rule="evenodd" stroke="none" />
            <path d="M223.71 17.0451C223.71 7.63161 231.341 0.000488281 240.755 0.000488281C250.168 0.000488281 257.799 7.63161 257.799 17.0451C257.799 26.4585 250.168 34.0896 240.755 34.0896C231.341 34.0896 223.71 26.4585 223.71 17.0451Z" id="Oval-Copy-5" fill="#D3D3D3" fill-rule="evenodd" stroke="none" />
            <path d="M268.452 17.0449C268.452 7.63148 276.083 0.000366211 285.497 0.000366211C294.91 0.000366211 302.541 7.63148 302.541 17.0449C302.541 26.4584 294.91 34.0895 285.497 34.0895C276.083 34.0895 268.452 26.4584 268.452 17.0449Z" id="Oval-Copy-6" fill="#D3D3D3" fill-rule="evenodd" stroke="none" />
            <path d="M313.194 17.0447C313.194 7.63124 320.825 0.00012207 330.239 0.00012207C339.652 0.00012207 347.283 7.63124 347.283 17.0447C347.283 26.4582 339.652 34.0893 330.239 34.0893C320.825 34.0893 313.194 26.4582 313.194 17.0447Z" id="Oval-Copy-7" fill="#D3D3D3" fill-rule="evenodd" stroke="none" />
            <path d="M357.936 17.0448C357.936 7.63136 365.567 0.000244141 374.981 0.000244141C384.394 0.000244141 392.025 7.63136 392.025 17.0448C392.025 26.4583 384.394 34.0894 374.981 34.0894C365.567 34.0894 357.936 26.4583 357.936 17.0448Z" id="Oval-Copy-8" fill="#D3D3D3" fill-rule="evenodd" stroke="none" />
            <path d="M402.678 17.0447C402.678 7.63124 410.309 0.00012207 419.723 0.00012207C429.136 0.00012207 436.767 7.63124 436.767 17.0447C436.767 26.4582 429.136 34.0893 419.723 34.0893C410.309 34.0893 402.678 26.4582 402.678 17.0447Z" id="Oval-Copy-9" fill="#D3D3D3" fill-rule="evenodd" stroke="none" />
            <path d="M447.42 17.0447C447.42 7.63124 455.051 0.00012207 464.464 0.00012207C473.878 0.00012207 481.509 7.63124 481.509 17.0447C481.509 26.4582 473.878 34.0893 464.464 34.0893C455.051 34.0893 447.42 26.4582 447.42 17.0447Z" id="Oval-Copy-10" fill="#D3D3D3" fill-rule="evenodd" stroke="none" />
          </g>
          <g id="Group-Copy-3" transform="translate(0.00012207031 137.42188)">
            <path d="M134.226 17.0447C134.226 7.63123 141.857 0.00012207 151.27 0.00012207C160.684 0.00012207 168.315 7.63123 168.315 17.0447C168.315 26.4581 160.684 34.0892 151.27 34.0892C141.857 34.0892 134.226 26.4581 134.226 17.0447Z" id="Oval-Copy-3" fill="#D3D3D3" fill-rule="evenodd" stroke="none" />
            <path d="M178.968 17.0448C178.968 7.63135 186.599 0.000244141 196.013 0.000244141C205.426 0.000244141 213.057 7.63135 213.057 17.0448C213.057 26.4583 205.426 34.0894 196.013 34.0894C186.599 34.0894 178.968 26.4583 178.968 17.0448Z" id="Oval-Copy-4" fill="#D3D3D3" fill-rule="evenodd" stroke="none" />
            <path d="M223.71 17.0449C223.71 7.63148 231.341 0.000366211 240.754 0.000366211C250.168 0.000366211 257.799 7.63148 257.799 17.0449C257.799 26.4584 250.168 34.0895 240.754 34.0895C231.341 34.0895 223.71 26.4584 223.71 17.0449Z" id="Oval-Copy-5" fill="#D3D3D3" fill-rule="evenodd" stroke="none" />
            <path d="M268.452 17.0451C268.452 7.6316 276.083 0.000488281 285.496 0.000488281C294.91 0.000488281 302.541 7.6316 302.541 17.0451C302.541 26.4585 294.91 34.0896 285.496 34.0896C276.083 34.0896 268.452 26.4585 268.452 17.0451Z" id="Oval-Copy-6" fill="#D3D3D3" fill-rule="evenodd" stroke="none" />
            <path d="M313.194 17.0449C313.194 7.63148 320.825 0.000366211 330.239 0.000366211C339.652 0.000366211 347.283 7.63148 347.283 17.0449C347.283 26.4584 339.652 34.0895 330.239 34.0895C320.825 34.0895 313.194 26.4584 313.194 17.0449Z" id="Oval-Copy-7" fill="#D3D3D3" fill-rule="evenodd" stroke="none" />
            <path d="M357.936 17.0452C357.936 7.63172 365.567 0.000610352 374.98 0.000610352C384.394 0.000610352 392.025 7.63172 392.025 17.0452C392.025 26.4586 384.394 34.0897 374.98 34.0897C365.567 34.0897 357.936 26.4586 357.936 17.0452Z" id="Oval-Copy-8" fill="#D3D3D3" fill-rule="evenodd" stroke="none" />
            <path d="M402.678 17.0451C402.678 7.6316 410.309 0.000488281 419.722 0.000488281C429.136 0.000488281 436.767 7.6316 436.767 17.0451C436.767 26.4585 429.136 34.0896 419.722 34.0896C410.309 34.0896 402.678 26.4585 402.678 17.0451Z" id="Oval-Copy-9" fill="#D3D3D3" fill-rule="evenodd" stroke="none" />
            <path d="M447.42 17.0449C447.42 7.63148 455.051 0.000366211 464.465 0.000366211C473.878 0.000366211 481.509 7.63148 481.509 17.0449C481.509 26.4584 473.878 34.0895 464.465 34.0895C455.051 34.0895 447.42 26.4584 447.42 17.0449Z" id="Oval-Copy-10" fill="#D3D3D3" fill-rule="evenodd" stroke="none" />
          </g>
          <g id="Group-Copy-4" transform="translate(0 183.22913)">
            <path d="M134.226 17.0448C134.226 7.63135 141.857 0.000244141 151.271 0.000244141C160.684 0.000244141 168.315 7.63135 168.315 17.0448C168.315 26.4583 160.684 34.0894 151.271 34.0894C141.857 34.0894 134.226 26.4583 134.226 17.0448Z" id="Oval-Copy-3" fill="#D3D3D3" fill-rule="evenodd" stroke="none" />
            <path d="M178.968 17.0448C178.968 7.63135 186.599 0.000244141 196.013 0.000244141C205.426 0.000244141 213.057 7.63135 213.057 17.0448C213.057 26.4583 205.426 34.0894 196.013 34.0894C186.599 34.0894 178.968 26.4583 178.968 17.0448Z" id="Oval-Copy-4" fill="#D3D3D3" fill-rule="evenodd" stroke="none" />
            <path d="M223.71 17.0449C223.71 7.63148 231.341 0.000366211 240.755 0.000366211C250.168 0.000366211 257.799 7.63148 257.799 17.0449C257.799 26.4584 250.168 34.0895 240.755 34.0895C231.341 34.0895 223.71 26.4584 223.71 17.0449Z" id="Oval-Copy-5" fill="#D3D3D3" fill-rule="evenodd" stroke="none" />
            <path d="M268.452 17.0447C268.452 7.63123 276.083 0.00012207 285.497 0.00012207C294.91 0.00012207 302.541 7.63123 302.541 17.0447C302.541 26.4581 294.91 34.0892 285.497 34.0892C276.083 34.0892 268.452 26.4581 268.452 17.0447Z" id="Oval-Copy-6" fill="#D3D3D3" fill-rule="evenodd" stroke="none" />
            <path d="M313.194 17.0448C313.194 7.63135 320.825 0.000244141 330.239 0.000244141C339.652 0.000244141 347.283 7.63135 347.283 17.0448C347.283 26.4583 339.652 34.0894 330.239 34.0894C320.825 34.0894 313.194 26.4583 313.194 17.0448Z" id="Oval-Copy-7" fill="#D3D3D3" fill-rule="evenodd" stroke="none" />
            <path d="M357.936 17.0447C357.936 7.63123 365.567 0.00012207 374.981 0.00012207C384.394 0.00012207 392.025 7.63123 392.025 17.0447C392.025 26.4581 384.394 34.0892 374.981 34.0892C365.567 34.0892 357.936 26.4581 357.936 17.0447Z" id="Oval-Copy-8" fill="#D3D3D3" fill-rule="evenodd" stroke="none" />
            <path d="M402.678 17.0449C402.678 7.63148 410.309 0.000366211 419.723 0.000366211C429.136 0.000366211 436.767 7.63148 436.767 17.0449C436.767 26.4584 429.136 34.0895 419.723 34.0895C410.309 34.0895 402.678 26.4584 402.678 17.0449Z" id="Oval-Copy-9" fill="#D3D3D3" fill-rule="evenodd" stroke="none" />
            <path d="M447.42 17.0447C447.42 7.63123 455.051 0.00012207 464.465 0.00012207C473.878 0.00012207 481.509 7.63123 481.509 17.0447C481.509 26.4581 473.878 34.0892 464.465 34.0892C455.051 34.0892 447.42 26.4581 447.42 17.0447Z" id="Oval-Copy-10" fill="#D3D3D3" fill-rule="evenodd" stroke="none" />
          </g>
        </g>
        <g id="Group-5-Copy-3" transform="translate(491.45178 228.68054)" filter="url(#filter_1)">
          <g id="Group" transform="translate(0.00018310547 0)">
            <path d="M3.05176e-05 17.0449C3.05176e-05 7.63148 7.63114 0.000366211 17.0446 0.000366211C26.4581 0.000366211 34.0892 7.63148 34.0892 17.0449C34.0892 26.4584 26.4581 34.0895 17.0446 34.0895C7.63114 34.0895 3.05176e-05 26.4584 3.05176e-05 17.0449Z" id="Oval" fill="#D3D3D3" fill-rule="evenodd" stroke="none" />
            <path d="M44.7419 17.0448C44.7419 7.63136 52.373 0.000244141 61.7865 0.000244141C71.1999 0.000244141 78.831 7.63136 78.831 17.0448C78.831 26.4583 71.1999 34.0894 61.7865 34.0894C52.373 34.0894 44.7419 26.4583 44.7419 17.0448Z" id="Oval-Copy" fill="#D3D3D3" fill-rule="evenodd" stroke="none" />
            <path d="M89.484 17.0448C89.484 7.63136 97.1151 0.000244141 106.529 0.000244141C115.942 0.000244141 123.573 7.63136 123.573 17.0448C123.573 26.4583 115.942 34.0894 106.529 34.0894C97.1151 34.0894 89.484 26.4583 89.484 17.0448Z" id="Oval-Copy-2" fill="#D3D3D3" fill-rule="evenodd" stroke="none" />
            <path d="M134.226 17.0449C134.226 7.63148 141.857 0.000366211 151.271 0.000366211C160.684 0.000366211 168.315 7.63148 168.315 17.0449C168.315 26.4584 160.684 34.0895 151.271 34.0895C141.857 34.0895 134.226 26.4584 134.226 17.0449Z" id="Oval-Copy-3" fill="#D3D3D3" fill-rule="evenodd" stroke="none" />
            <path d="M178.968 17.0447C178.968 7.63124 186.599 0.00012207 196.012 0.00012207C205.426 0.00012207 213.057 7.63124 213.057 17.0447C213.057 26.4582 205.426 34.0893 196.012 34.0893C186.599 34.0893 178.968 26.4582 178.968 17.0447Z" id="Oval-Copy-4" fill="#D3D3D3" fill-rule="evenodd" stroke="none" />
            <path d="M223.71 17.0451C223.71 7.6316 231.341 0.000488281 240.754 0.000488281C250.168 0.000488281 257.799 7.6316 257.799 17.0451C257.799 26.4585 250.168 34.0896 240.754 34.0896C231.341 34.0896 223.71 26.4585 223.71 17.0451Z" id="Oval-Copy-5" fill="#D3D3D3" fill-rule="evenodd" stroke="none" />
            <path d="M268.452 17.0452C268.452 7.63173 276.083 0.000610352 285.496 0.000610352C294.91 0.000610352 302.541 7.63173 302.541 17.0452C302.541 26.4586 294.91 34.0898 285.496 34.0898C276.083 34.0898 268.452 26.4586 268.452 17.0452Z" id="Oval-Copy-6" fill="#D3D3D3" fill-rule="evenodd" stroke="none" />
          </g>
          <g id="Group-Copy" transform="translate(-0.00012207031 45.807617)">
            <path d="M3.05176e-05 17.0451C3.05176e-05 7.6316 7.63114 0.000488281 17.0446 0.000488281C26.4581 0.000488281 34.0892 7.6316 34.0892 17.0451C34.0892 26.4585 26.4581 34.0896 17.0446 34.0896C7.63114 34.0896 3.05176e-05 26.4585 3.05176e-05 17.0451Z" id="Oval" fill="#D3D3D3" fill-rule="evenodd" stroke="none" />
            <path d="M44.7421 17.0448C44.7421 7.63136 52.3732 0.000244141 61.7866 0.000244141C71.2001 0.000244141 78.8312 7.63136 78.8312 17.0448C78.8312 26.4583 71.2001 34.0894 61.7866 34.0894C52.3732 34.0894 44.7421 26.4583 44.7421 17.0448Z" id="Oval-Copy" fill="#D3D3D3" fill-rule="evenodd" stroke="none" />
            <path d="M89.484 17.0449C89.484 7.63148 97.1151 0.000366211 106.529 0.000366211C115.942 0.000366211 123.573 7.63148 123.573 17.0449C123.573 26.4584 115.942 34.0895 106.529 34.0895C97.1151 34.0895 89.484 26.4584 89.484 17.0449Z" id="Oval-Copy-2" fill="#D3D3D3" fill-rule="evenodd" stroke="none" />
            <path d="M134.226 17.0451C134.226 7.6316 141.857 0.000488281 151.271 0.000488281C160.684 0.000488281 168.315 7.6316 168.315 17.0451C168.315 26.4585 160.684 34.0896 151.271 34.0896C141.857 34.0896 134.226 26.4585 134.226 17.0451Z" id="Oval-Copy-3" fill="#D3D3D3" fill-rule="evenodd" stroke="none" />
            <path d="M178.968 17.0446C178.968 7.63111 186.599 0 196.013 0C205.426 0 213.057 7.63111 213.057 17.0446C213.057 26.458 205.426 34.0891 196.013 34.0891C186.599 34.0891 178.968 26.458 178.968 17.0446Z" id="Oval-Copy-4" fill="#D3D3D3" fill-rule="evenodd" stroke="none" />
            <path d="M223.71 17.0451C223.71 7.6316 231.341 0.000488281 240.754 0.000488281C250.168 0.000488281 257.799 7.6316 257.799 17.0451C257.799 26.4585 250.168 34.0896 240.754 34.0896C231.341 34.0896 223.71 26.4585 223.71 17.0451Z" id="Oval-Copy-5" fill="#D3D3D3" fill-rule="evenodd" stroke="none" />
          </g>
          <g id="Group-Copy-2" transform="translate(0.00012207031 91.61499)">
            <path d="M0 17.0452C0 7.63173 7.63111 0.000610352 17.0446 0.000610352C26.458 0.000610352 34.0891 7.63173 34.0891 17.0452C34.0891 26.4586 26.458 34.0898 17.0446 34.0898C7.63111 34.0898 0 26.4586 0 17.0452Z" id="Oval" fill="#D3D3D3" fill-rule="evenodd" stroke="none" />
            <path d="M44.7422 17.0446C44.7422 7.63112 52.3733 0 61.7868 0C71.2002 0 78.8314 7.63112 78.8314 17.0446C78.8314 26.458 71.2002 34.0891 61.7868 34.0891C52.3733 34.0891 44.7422 26.458 44.7422 17.0446Z" id="Oval-Copy" fill="#D3D3D3" fill-rule="evenodd" stroke="none" />
            <path d="M89.484 17.0449C89.484 7.63148 97.1152 0.000366211 106.529 0.000366211C115.942 0.000366211 123.573 7.63148 123.573 17.0449C123.573 26.4584 115.942 34.0895 106.529 34.0895C97.1152 34.0895 89.484 26.4584 89.484 17.0449Z" id="Oval-Copy-2" fill="#D3D3D3" fill-rule="evenodd" stroke="none" />
            <path d="M134.226 17.0447C134.226 7.63124 141.857 0.00012207 151.271 0.00012207C160.684 0.00012207 168.315 7.63124 168.315 17.0447C168.315 26.4582 160.684 34.0893 151.271 34.0893C141.857 34.0893 134.226 26.4582 134.226 17.0447Z" id="Oval-Copy-3" fill="#D3D3D3" fill-rule="evenodd" stroke="none" />
            <path d="M178.968 17.0448C178.968 7.63136 186.599 0.000244141 196.013 0.000244141C205.426 0.000244141 213.057 7.63136 213.057 17.0448C213.057 26.4583 205.426 34.0894 196.013 34.0894C186.599 34.0894 178.968 26.4583 178.968 17.0448Z" id="Oval-Copy-4" fill="#D3D3D3" fill-rule="evenodd" stroke="none" />
            <path d="M223.71 17.0448C223.71 7.63136 231.341 0.000244141 240.755 0.000244141C250.168 0.000244141 257.799 7.63136 257.799 17.0448C257.799 26.4583 250.168 34.0894 240.755 34.0894C231.341 34.0894 223.71 26.4583 223.71 17.0448Z" id="Oval-Copy-5" fill="#D3D3D3" fill-rule="evenodd" stroke="none" />
          </g>
          <g id="Group-Copy-3" transform="translate(3.0517578E-05 137.42236)">
            <path d="M0 17.0451C0 7.6316 7.63111 0.000488281 17.0446 0.000488281C26.458 0.000488281 34.0891 7.6316 34.0891 17.0451C34.0891 26.4585 26.458 34.0896 17.0446 34.0896C7.63111 34.0896 0 26.4585 0 17.0451Z" id="Oval" fill="#D3D3D3" fill-rule="evenodd" stroke="none" />
            <path d="M44.742 17.0447C44.742 7.63124 52.3731 0.00012207 61.7866 0.00012207C71.2001 0.00012207 78.8312 7.63124 78.8312 17.0447C78.8312 26.4581 71.2001 34.0893 61.7866 34.0893C52.3731 34.0893 44.742 26.4581 44.742 17.0447Z" id="Oval-Copy" fill="#D3D3D3" fill-rule="evenodd" stroke="none" />
            <path d="M89.484 17.0446C89.484 7.63111 97.1152 0 106.529 0C115.942 0 123.573 7.63111 123.573 17.0446C123.573 26.458 115.942 34.0891 106.529 34.0891C97.1152 34.0891 89.484 26.458 89.484 17.0446Z" id="Oval-Copy-2" fill="#D3D3D3" fill-rule="evenodd" stroke="none" />
            <path d="M134.226 17.0446C134.226 7.63111 141.857 0 151.271 0C160.684 0 168.315 7.63111 168.315 17.0446C168.315 26.458 160.684 34.0891 151.271 34.0891C141.857 34.0891 134.226 26.458 134.226 17.0446Z" id="Oval-Copy-3" fill="#D3D3D3" fill-rule="evenodd" stroke="none" />
            <path d="M178.968 17.0446C178.968 7.63111 186.599 0 196.012 0C205.426 0 213.057 7.63111 213.057 17.0446C213.057 26.458 205.426 34.0891 196.012 34.0891C186.599 34.0891 178.968 26.458 178.968 17.0446Z" id="Oval-Copy-4" fill="#D3D3D3" fill-rule="evenodd" stroke="none" />
          </g>
          <g id="Group-Copy-4" transform="translate(0.00024414062 183.22949)">
            <path d="M-3.05176e-05 17.0446C-3.05176e-05 7.63111 7.63108 0 17.0445 0C26.458 0 34.0891 7.63111 34.0891 17.0446C34.0891 26.458 26.458 34.0891 17.0445 34.0891C7.63108 34.0891 -3.05176e-05 26.458 -3.05176e-05 17.0446Z" id="Oval" fill="#D3D3D3" fill-rule="evenodd" stroke="none" />
            <path d="M44.742 17.0451C44.742 7.6316 52.3731 0.000488281 61.7866 0.000488281C71.2 0.000488281 78.8311 7.6316 78.8311 17.0451C78.8311 26.4585 71.2 34.0896 61.7866 34.0896C52.3731 34.0896 44.742 26.4585 44.742 17.0451Z" id="Oval-Copy" fill="#D3D3D3" fill-rule="evenodd" stroke="none" />
            <path d="M89.484 17.0446C89.484 7.63111 97.1151 0 106.529 0C115.942 0 123.573 7.63111 123.573 17.0446C123.573 26.458 115.942 34.0891 106.529 34.0891C97.1151 34.0891 89.484 26.458 89.484 17.0446Z" id="Oval-Copy-2" fill="#D3D3D3" fill-rule="evenodd" stroke="none" />
            <path d="M134.226 17.0446C134.226 7.63111 141.857 0 151.271 0C160.684 0 168.315 7.63111 168.315 17.0446C168.315 26.458 160.684 34.0891 151.271 34.0891C141.857 34.0891 134.226 26.458 134.226 17.0446Z" id="Oval-Copy-3" fill="#D3D3D3" fill-rule="evenodd" stroke="none" />
            <path d="M178.968 17.0448C178.968 7.63136 186.599 0.000244141 196.012 0.000244141C205.426 0.000244141 213.057 7.63136 213.057 17.0448C213.057 26.4583 205.426 34.0894 196.012 34.0894C186.599 34.0894 178.968 26.4583 178.968 17.0448Z" id="Oval-Copy-4" fill="#D3D3D3" fill-rule="evenodd" stroke="none" />
          </g>
        </g>
        <g id="Group-5-Copy-4" transform="translate(491.4519 0.00012207031)" filter="url(#filter_1)">
          <g id="Group" transform="translate(0.00015258789 0)">
            <path d="M0 17.0447C0 7.63124 7.63112 0.00012207 17.0446 0.00012207C26.458 0.00012207 34.0891 7.63124 34.0891 17.0447C34.0891 26.4582 26.458 34.0893 17.0446 34.0893C7.63112 34.0893 0 26.4582 0 17.0447Z" id="Oval" fill="#D3D3D3" fill-rule="evenodd" stroke="none" />
            <path d="M44.742 17.0447C44.742 7.63124 52.3731 0.00012207 61.7865 0.00012207C71.2 0.00012207 78.8311 7.63124 78.8311 17.0447C78.8311 26.4582 71.2 34.0893 61.7865 34.0893C52.3731 34.0893 44.742 26.4582 44.742 17.0447Z" id="Oval-Copy" fill="#D3D3D3" fill-rule="evenodd" stroke="none" />
            <path d="M89.4839 17.0447C89.4839 7.63124 97.115 0.00012207 106.528 0.00012207C115.942 0.00012207 123.573 7.63124 123.573 17.0447C123.573 26.4582 115.942 34.0893 106.528 34.0893C97.115 34.0893 89.4839 26.4582 89.4839 17.0447Z" id="Oval-Copy-2" fill="#D3D3D3" fill-rule="evenodd" stroke="none" />
            <path d="M134.226 17.0447C134.226 7.63124 141.857 0.00012207 151.271 0.00012207C160.684 0.00012207 168.315 7.63124 168.315 17.0447C168.315 26.4582 160.684 34.0893 151.271 34.0893C141.857 34.0893 134.226 26.4582 134.226 17.0447Z" id="Oval-Copy-3" fill="#D3D3D3" fill-rule="evenodd" stroke="none" />
          </g>
          <g id="Group-Copy" transform="translate(0.00015258789 45.806152)">
            <path d="M0 17.0452C0 7.63172 7.63111 0.000610352 17.0446 0.000610352C26.458 0.000610352 34.0891 7.63172 34.0891 17.0452C34.0891 26.4586 26.458 34.0897 17.0446 34.0897C7.63111 34.0897 0 26.4586 0 17.0452Z" id="Oval" fill="#D3D3D3" fill-rule="evenodd" stroke="none" />
            <path d="M44.742 17.0449C44.742 7.63148 52.3731 0.000366211 61.7866 0.000366211C71.2001 0.000366211 78.8312 7.63148 78.8312 17.0449C78.8312 26.4584 71.2001 34.0895 61.7866 34.0895C52.3731 34.0895 44.742 26.4584 44.742 17.0449Z" id="Oval-Copy" fill="#D3D3D3" fill-rule="evenodd" stroke="none" />
            <path d="M89.484 17.0449C89.484 7.63148 97.1151 0.000366211 106.529 0.000366211C115.942 0.000366211 123.573 7.63148 123.573 17.0449C123.573 26.4584 115.942 34.0895 106.529 34.0895C97.1151 34.0895 89.484 26.4584 89.484 17.0449Z" id="Oval-Copy-2" fill="#D3D3D3" fill-rule="evenodd" stroke="none" />
            <path d="M134.226 17.0451C134.226 7.6316 141.857 0.000488281 151.271 0.000488281C160.684 0.000488281 168.315 7.6316 168.315 17.0451C168.315 26.4585 160.684 34.0896 151.271 34.0896C141.857 34.0896 134.226 26.4585 134.226 17.0451Z" id="Oval-Copy-3" fill="#D3D3D3" fill-rule="evenodd" stroke="none" />
            <path d="M178.968 17.0448C178.968 7.63136 186.599 0.000244141 196.012 0.000244141C205.426 0.000244141 213.057 7.63136 213.057 17.0448C213.057 26.4583 205.426 34.0894 196.012 34.0894C186.599 34.0894 178.968 26.4583 178.968 17.0448Z" id="Oval-Copy-4" fill="#D3D3D3" fill-rule="evenodd" stroke="none" />
            <path d="M223.71 17.0449C223.71 7.63148 231.341 0.000366211 240.755 0.000366211C250.168 0.000366211 257.799 7.63148 257.799 17.0449C257.799 26.4584 250.168 34.0895 240.755 34.0895C231.341 34.0895 223.71 26.4584 223.71 17.0449Z" id="Oval-Copy-5" fill="#D3D3D3" fill-rule="evenodd" stroke="none" />
          </g>
          <g id="Group-Copy-2" transform="translate(9.1552734E-05 91.614136)">
            <path d="M-3.05176e-05 17.0452C-3.05176e-05 7.63173 7.63108 0.000610352 17.0445 0.000610352C26.458 0.000610352 34.0891 7.63173 34.0891 17.0452C34.0891 26.4586 26.458 34.0898 17.0445 34.0898C7.63108 34.0898 -3.05176e-05 26.4586 -3.05176e-05 17.0452Z" id="Oval" fill="#D3D3D3" fill-rule="evenodd" stroke="none" />
            <path d="M44.7421 17.0448C44.7421 7.63136 52.3732 0.000244141 61.7867 0.000244141C71.2001 0.000244141 78.8312 7.63136 78.8312 17.0448C78.8312 26.4583 71.2001 34.0894 61.7867 34.0894C52.3732 34.0894 44.7421 26.4583 44.7421 17.0448Z" id="Oval-Copy" fill="#D3D3D3" fill-rule="evenodd" stroke="none" />
            <path d="M89.484 17.0451C89.484 7.63161 97.1151 0.000488281 106.529 0.000488281C115.942 0.000488281 123.573 7.63161 123.573 17.0451C123.573 26.4585 115.942 34.0896 106.529 34.0896C97.1151 34.0896 89.484 26.4585 89.484 17.0451Z" id="Oval-Copy-2" fill="#D3D3D3" fill-rule="evenodd" stroke="none" />
            <path d="M134.226 17.0448C134.226 7.63136 141.857 0.000244141 151.271 0.000244141C160.684 0.000244141 168.315 7.63136 168.315 17.0448C168.315 26.4583 160.684 34.0894 151.271 34.0894C141.857 34.0894 134.226 26.4583 134.226 17.0448Z" id="Oval-Copy-3" fill="#D3D3D3" fill-rule="evenodd" stroke="none" />
            <path d="M178.968 17.0448C178.968 7.63136 186.599 0.000244141 196.013 0.000244141C205.426 0.000244141 213.057 7.63136 213.057 17.0448C213.057 26.4583 205.426 34.0894 196.013 34.0894C186.599 34.0894 178.968 26.4583 178.968 17.0448Z" id="Oval-Copy-4" fill="#D3D3D3" fill-rule="evenodd" stroke="none" />
            <path d="M223.71 17.0447C223.71 7.63124 231.341 0.00012207 240.755 0.00012207C250.168 0.00012207 257.799 7.63124 257.799 17.0447C257.799 26.4582 250.168 34.0893 240.755 34.0893C231.341 34.0893 223.71 26.4582 223.71 17.0447Z" id="Oval-Copy-5" fill="#D3D3D3" fill-rule="evenodd" stroke="none" />
            <path d="M268.452 17.0451C268.452 7.63161 276.083 0.000488281 285.497 0.000488281C294.91 0.000488281 302.541 7.63161 302.541 17.0451C302.541 26.4585 294.91 34.0896 285.497 34.0896C276.083 34.0896 268.452 26.4585 268.452 17.0451Z" id="Oval-Copy-6" fill="#D3D3D3" fill-rule="evenodd" stroke="none" />
          </g>
          <g id="Group-Copy-3" transform="translate(0 137.42139)">
            <path d="M3.05176e-05 17.0449C3.05176e-05 7.63148 7.63115 0.000366211 17.0446 0.000366211C26.4581 0.000366211 34.0892 7.63148 34.0892 17.0449C34.0892 26.4584 26.4581 34.0895 17.0446 34.0895C7.63115 34.0895 3.05176e-05 26.4584 3.05176e-05 17.0449Z" id="Oval" fill="#D3D3D3" fill-rule="evenodd" stroke="none" />
            <path d="M44.742 17.0452C44.742 7.63172 52.3731 0.000610352 61.7866 0.000610352C71.2001 0.000610352 78.8312 7.63172 78.8312 17.0452C78.8312 26.4586 71.2001 34.0897 61.7866 34.0897C52.3731 34.0897 44.742 26.4586 44.742 17.0452Z" id="Oval-Copy" fill="#D3D3D3" fill-rule="evenodd" stroke="none" />
            <path d="M89.4841 17.0447C89.4841 7.63123 97.1152 0.00012207 106.529 0.00012207C115.942 0.00012207 123.573 7.63123 123.573 17.0447C123.573 26.4581 115.942 34.0892 106.529 34.0892C97.1152 34.0892 89.4841 26.4581 89.4841 17.0447Z" id="Oval-Copy-2" fill="#D3D3D3" fill-rule="evenodd" stroke="none" />
            <path d="M134.226 17.0452C134.226 7.63172 141.857 0.000610352 151.271 0.000610352C160.684 0.000610352 168.315 7.63172 168.315 17.0452C168.315 26.4586 160.684 34.0897 151.271 34.0897C141.857 34.0897 134.226 26.4586 134.226 17.0452Z" id="Oval-Copy-3" fill="#D3D3D3" fill-rule="evenodd" stroke="none" />
            <path d="M178.968 17.0452C178.968 7.63172 186.599 0.000610352 196.012 0.000610352C205.426 0.000610352 213.057 7.63172 213.057 17.0452C213.057 26.4586 205.426 34.0897 196.012 34.0897C186.599 34.0897 178.968 26.4586 178.968 17.0452Z" id="Oval-Copy-4" fill="#D3D3D3" fill-rule="evenodd" stroke="none" />
            <path d="M223.71 17.0451C223.71 7.6316 231.341 0.000488281 240.755 0.000488281C250.168 0.000488281 257.799 7.6316 257.799 17.0451C257.799 26.4585 250.168 34.0896 240.755 34.0896C231.341 34.0896 223.71 26.4585 223.71 17.0451Z" id="Oval-Copy-5" fill="#D3D3D3" fill-rule="evenodd" stroke="none" />
            <path d="M268.452 17.0451C268.452 7.6316 276.083 0.000488281 285.497 0.000488281C294.91 0.000488281 302.541 7.6316 302.541 17.0451C302.541 26.4585 294.91 34.0896 285.497 34.0896C276.083 34.0896 268.452 26.4585 268.452 17.0451Z" id="Oval-Copy-6" fill="#D3D3D3" fill-rule="evenodd" stroke="none" />
            <path d="M313.194 17.0452C313.194 7.63172 320.825 0.000610352 330.239 0.000610352C339.652 0.000610352 347.283 7.63172 347.283 17.0452C347.283 26.4586 339.652 34.0897 330.239 34.0897C320.825 34.0897 313.194 26.4586 313.194 17.0452Z" id="Oval-Copy-7" fill="#D3D3D3" fill-rule="evenodd" stroke="none" />
          </g>
          <g id="Group-Copy-4" transform="translate(3.0517578E-05 183.229)">
            <path d="M-3.05176e-05 17.0448C-3.05176e-05 7.63135 7.63108 0.000244141 17.0445 0.000244141C26.458 0.000244141 34.0891 7.63135 34.0891 17.0448C34.0891 26.4583 26.458 34.0894 17.0445 34.0894C7.63108 34.0894 -3.05176e-05 26.4583 -3.05176e-05 17.0448Z" id="Oval" fill="#D3D3D3" fill-rule="evenodd" stroke="none" />
            <path d="M44.7421 17.0447C44.7421 7.63123 52.3732 0.00012207 61.7867 0.00012207C71.2001 0.00012207 78.8313 7.63123 78.8313 17.0447C78.8313 26.4581 71.2001 34.0892 61.7867 34.0892C52.3732 34.0892 44.7421 26.4581 44.7421 17.0447Z" id="Oval-Copy" fill="#D3D3D3" fill-rule="evenodd" stroke="none" />
            <path d="M89.4841 17.0448C89.4841 7.63135 97.1152 0.000244141 106.529 0.000244141C115.942 0.000244141 123.573 7.63135 123.573 17.0448C123.573 26.4583 115.942 34.0894 106.529 34.0894C97.1152 34.0894 89.4841 26.4583 89.4841 17.0448Z" id="Oval-Copy-2" fill="#D3D3D3" fill-rule="evenodd" stroke="none" />
            <path d="M134.226 17.0448C134.226 7.63135 141.857 0.000244141 151.271 0.000244141C160.684 0.000244141 168.315 7.63135 168.315 17.0448C168.315 26.4583 160.684 34.0894 151.271 34.0894C141.857 34.0894 134.226 26.4583 134.226 17.0448Z" id="Oval-Copy-3" fill="#D3D3D3" fill-rule="evenodd" stroke="none" />
            <path d="M178.968 17.0449C178.968 7.63148 186.599 0.000366211 196.013 0.000366211C205.426 0.000366211 213.057 7.63148 213.057 17.0449C213.057 26.4584 205.426 34.0895 196.013 34.0895C186.599 34.0895 178.968 26.4584 178.968 17.0449Z" id="Oval-Copy-4" fill="#D3D3D3" fill-rule="evenodd" stroke="none" />
            <path d="M223.71 17.0449C223.71 7.63148 231.341 0.000366211 240.755 0.000366211C250.168 0.000366211 257.799 7.63148 257.799 17.0449C257.799 26.4584 250.168 34.0895 240.755 34.0895C231.341 34.0895 223.71 26.4584 223.71 17.0449Z" id="Oval-Copy-5" fill="#D3D3D3" fill-rule="evenodd" stroke="none" />
            <path d="M268.452 17.0449C268.452 7.63148 276.083 0.000366211 285.497 0.000366211C294.91 0.000366211 302.541 7.63148 302.541 17.0449C302.541 26.4584 294.91 34.0895 285.497 34.0895C276.083 34.0895 268.452 26.4584 268.452 17.0449Z" id="Oval-Copy-6" fill="#D3D3D3" fill-rule="evenodd" stroke="none" />
            <path d="M313.194 17.0449C313.194 7.63148 320.825 0.000366211 330.238 0.000366211C339.652 0.000366211 347.283 7.63148 347.283 17.0449C347.283 26.4584 339.652 34.0895 330.238 34.0895C320.825 34.0895 313.194 26.4584 313.194 17.0449Z" id="Oval-Copy-7" fill="#D3D3D3" fill-rule="evenodd" stroke="none" />
          </g>
        </g>
      </g>
      <g id="Group-5-Copy" transform="matrix(0.8660254 -0.5 0.5 0.8660254 -454.6063 -103.521484)">
        <g id="Group-5-Copy" transform="translate(0.00030517578 228.68124)" filter="url(#filter_1)">
          <g id="Group" transform="translate(-6.1035156E-05 0.00012207031)" />
          <g id="Group-Copy" transform="translate(0.00018310547 45.807007)">
            <path d="M313.194 17.0448C313.194 7.63136 320.825 0.000244141 330.239 0.000244141C339.652 0.000244141 347.283 7.63136 347.283 17.0448C347.283 26.4583 339.652 34.0894 330.239 34.0894C320.825 34.0894 313.194 26.4583 313.194 17.0448Z" id="Oval-Copy-7" fill="#D3D3D3" fill-rule="evenodd" stroke="none" />
          </g>
          <g id="Group-Copy-2" transform="translate(6.1035156E-05 91.614136)">
            <path d="M313.194 17.0452C313.194 7.63173 320.825 0.000610352 330.238 0.000610352C339.652 0.000610352 347.283 7.63173 347.283 17.0452C347.283 26.4586 339.652 34.0898 330.238 34.0898C320.825 34.0898 313.194 26.4586 313.194 17.0452Z" id="Oval-Copy-7" fill="#D3D3D3" fill-rule="evenodd" stroke="none" />
            <path d="M357.936 17.0451C357.936 7.63161 365.567 0.000488281 374.98 0.000488281C384.394 0.000488281 392.025 7.63161 392.025 17.0451C392.025 26.4585 384.394 34.0896 374.98 34.0896C365.567 34.0896 357.936 26.4585 357.936 17.0451Z" id="Oval-Copy-8" fill="#D3D3D3" fill-rule="evenodd" stroke="none" />
            <path d="M402.678 17.0452C402.678 7.63173 410.309 0.000610352 419.722 0.000610352C429.136 0.000610352 436.767 7.63173 436.767 17.0452C436.767 26.4586 429.136 34.0898 419.722 34.0898C410.309 34.0898 402.678 26.4586 402.678 17.0452Z" id="Oval-Copy-9" fill="#D3D3D3" fill-rule="evenodd" stroke="none" />
          </g>
          <g id="Group-Copy-3" transform="translate(0.00012207031 137.42188)">
            <path d="M268.452 17.0453C268.452 7.63185 276.083 0.000732422 285.497 0.000732422C294.91 0.000732422 302.541 7.63185 302.541 17.0453C302.541 26.4588 294.91 34.0899 285.497 34.0899C276.083 34.0899 268.452 26.4588 268.452 17.0453Z" id="Oval-Copy-6" fill="#D3D3D3" fill-rule="evenodd" stroke="none" />
            <path d="M313.194 17.0452C313.194 7.63172 320.825 0.000610352 330.238 0.000610352C339.652 0.000610352 347.283 7.63172 347.283 17.0452C347.283 26.4586 339.652 34.0898 330.238 34.0898C320.825 34.0898 313.194 26.4586 313.194 17.0452Z" id="Oval-Copy-7" fill="#D3D3D3" fill-rule="evenodd" stroke="none" />
            <path d="M357.936 17.0451C357.936 7.6316 365.567 0.000488281 374.98 0.000488281C384.394 0.000488281 392.025 7.6316 392.025 17.0451C392.025 26.4585 384.394 34.0896 374.98 34.0896C365.567 34.0896 357.936 26.4585 357.936 17.0451Z" id="Oval-Copy-8" fill="#D3D3D3" fill-rule="evenodd" stroke="none" />
            <path d="M402.678 17.0449C402.678 7.63148 410.309 0.000366211 419.722 0.000366211C429.136 0.000366211 436.767 7.63148 436.767 17.0449C436.767 26.4584 429.136 34.0895 419.722 34.0895C410.309 34.0895 402.678 26.4584 402.678 17.0449Z" id="Oval-Copy-9" fill="#D3D3D3" fill-rule="evenodd" stroke="none" />
            <path d="M447.42 17.0452C447.42 7.63172 455.051 0.000610352 464.465 0.000610352C473.878 0.000610352 481.509 7.63172 481.509 17.0452C481.509 26.4586 473.878 34.0898 464.465 34.0898C455.051 34.0898 447.42 26.4586 447.42 17.0452Z" id="Oval-Copy-10" fill="#D3D3D3" fill-rule="evenodd" stroke="none" />
          </g>
          <g id="Group-Copy-4" transform="translate(0.00048828125 183.229)">
            <path d="M268.452 17.0448C268.452 7.63135 276.083 0.000244141 285.497 0.000244141C294.91 0.000244141 302.541 7.63135 302.541 17.0448C302.541 26.4583 294.91 34.0894 285.497 34.0894C276.083 34.0894 268.452 26.4583 268.452 17.0448Z" id="Oval-Copy-6" fill="#D3D3D3" fill-rule="evenodd" stroke="none" />
            <path d="M313.194 17.0448C313.194 7.63135 320.825 0.000244141 330.239 0.000244141C339.652 0.000244141 347.283 7.63135 347.283 17.0448C347.283 26.4583 339.652 34.0894 330.239 34.0894C320.825 34.0894 313.194 26.4583 313.194 17.0448Z" id="Oval-Copy-7" fill="#D3D3D3" fill-rule="evenodd" stroke="none" />
            <path d="M357.936 17.0448C357.936 7.63135 365.567 0.000244141 374.981 0.000244141C384.394 0.000244141 392.025 7.63135 392.025 17.0448C392.025 26.4583 384.394 34.0894 374.981 34.0894C365.567 34.0894 357.936 26.4583 357.936 17.0448Z" id="Oval-Copy-8" fill="#D3D3D3" fill-rule="evenodd" stroke="none" />
            <path d="M402.678 17.0448C402.678 7.63135 410.309 0.000244141 419.722 0.000244141C429.136 0.000244141 436.767 7.63135 436.767 17.0448C436.767 26.4583 429.136 34.0894 419.722 34.0894C410.309 34.0894 402.678 26.4583 402.678 17.0448Z" id="Oval-Copy-9" fill="#D3D3D3" fill-rule="evenodd" stroke="none" />
            <path d="M447.42 17.0448C447.42 7.63135 455.051 0.000244141 464.465 0.000244141C473.878 0.000244141 481.509 7.63135 481.509 17.0448C481.509 26.4583 473.878 34.0894 464.465 34.0894C455.051 34.0894 447.42 26.4583 447.42 17.0448Z" id="Oval-Copy-10" fill="#D3D3D3" fill-rule="evenodd" stroke="none" />
          </g>
        </g>
        <g id="Group-5-Copy-2" transform="translate(6.1035156E-05 -3.0517578E-05)" filter="url(#filter_1)">
          <g id="Group-Copy-2" transform="translate(0 91.6145)" />
          <g id="Group-Copy-3" transform="translate(0.00012207031 137.42188)" />
          <g id="Group-Copy-4" transform="translate(0 183.22913)" />
        </g>
        <g id="Group-5-Copy-3" transform="translate(491.45178 228.68063)" filter="url(#filter_1)">
          <g id="Group-Copy-4" transform="translate(0.00024414062 183.22949)">
            <path d="M-3.05176e-05 17.0446C-3.05176e-05 7.63111 7.63108 0 17.0445 0C26.458 0 34.0891 7.63111 34.0891 17.0446C34.0891 26.458 26.458 34.0891 17.0445 34.0891C7.63108 34.0891 -3.05176e-05 26.458 -3.05176e-05 17.0446Z" id="Oval" fill="#D3D3D3" fill-rule="evenodd" stroke="none" />
            <path d="M44.742 17.0451C44.742 7.6316 52.3731 0.000488281 61.7866 0.000488281C71.2 0.000488281 78.8311 7.6316 78.8311 17.0451C78.8311 26.4585 71.2 34.0896 61.7866 34.0896C52.3731 34.0896 44.742 26.4585 44.742 17.0451Z" id="Oval-Copy" fill="#D3D3D3" fill-rule="evenodd" stroke="none" />
          </g>
        </g>
      </g>
      <g id="Group-5-Copy-2" transform="matrix(0.8660254 -0.5 0.5 0.8660254 157.39429 599.478)">
        <g id="Group-5-Copy-2" transform="translate(6.1035156E-05 -3.0517578E-05)" filter="url(#filter_1)">
          <g id="Group" transform="translate(-6.1035156E-05 0)">
            <path d="M313.194 17.0447C313.194 7.63124 320.825 0.00012207 330.239 0.00012207C339.652 0.00012207 347.283 7.63124 347.283 17.0447C347.283 26.4582 339.652 34.0893 330.239 34.0893C320.825 34.0893 313.194 26.4582 313.194 17.0447Z" id="Oval-Copy-7" fill="#D3D3D3" fill-rule="evenodd" stroke="none" />
            <path d="M357.936 17.0448C357.936 7.63136 365.567 0.000244141 374.981 0.000244141C384.394 0.000244141 392.025 7.63136 392.025 17.0448C392.025 26.4583 384.394 34.0894 374.981 34.0894C365.567 34.0894 357.936 26.4583 357.936 17.0448Z" id="Oval-Copy-8" fill="#D3D3D3" fill-rule="evenodd" stroke="none" />
            <path d="M402.678 17.0449C402.678 7.63148 410.309 0.000366211 419.723 0.000366211C429.136 0.000366211 436.767 7.63148 436.767 17.0449C436.767 26.4584 429.136 34.0895 419.723 34.0895C410.309 34.0895 402.678 26.4584 402.678 17.0449Z" id="Oval-Copy-9" fill="#D3D3D3" fill-rule="evenodd" stroke="none" />
            <path d="M447.42 17.0448C447.42 7.63136 455.051 0.000244141 464.465 0.000244141C473.878 0.000244141 481.509 7.63136 481.509 17.0448C481.509 26.4583 473.878 34.0894 464.465 34.0894C455.051 34.0894 447.42 26.4583 447.42 17.0448Z" id="Oval-Copy-10" fill="#D3D3D3" fill-rule="evenodd" stroke="none" />
          </g>
          <g id="Group-Copy" transform="translate(0.00012207031 45.806885)">
            <path d="M357.936 17.0448C357.936 7.63136 365.567 0.000244141 374.981 0.000244141C384.394 0.000244141 392.025 7.63136 392.025 17.0448C392.025 26.4583 384.394 34.0894 374.981 34.0894C365.567 34.0894 357.936 26.4583 357.936 17.0448Z" id="Oval-Copy-8" fill="#D3D3D3" fill-rule="evenodd" stroke="none" />
            <path d="M402.678 17.0453C402.678 7.63185 410.309 0.000732422 419.722 0.000732422C429.136 0.000732422 436.767 7.63185 436.767 17.0453C436.767 26.4588 429.136 34.0899 419.722 34.0899C410.309 34.0899 402.678 26.4588 402.678 17.0453Z" id="Oval-Copy-9" fill="#D3D3D3" fill-rule="evenodd" stroke="none" />
          </g>
          <g id="Group-Copy-2" transform="translate(0 91.6145)" />
        </g>
      </g>
      <path d="M0 0L567 0L567 444L0 444L0 0Z" id="Rectangle-33" fill="url(#gradient_1)" fill-rule="evenodd" stroke="none" />
    </g>
  </g>
</svg>