<?xml version="1.0" encoding="utf-8"?>
<svg width="1078px" height="306px" viewBox="0 0 1078 306" version="1.1" xmlns:xlink="http://www.w3.org/1999/xlink" xmlns="http://www.w3.org/2000/svg">
  <defs>
    <linearGradient gradientUnits="userSpaceOnUse" x1="1124.5629" y1="149.55182" x2="430.3182" y2="194.49986" id="gradient_1">
      <stop offset="0%" stop-color="#FFFFFF" stop-opacity="0.7490196" />
      <stop offset="100%" stop-color="#FFFFFF" />
    </linearGradient>
    <filter id="filter_1">
      <feColorMatrix in="SourceGraphic" type="matrix" values="0 0 0 0 0.7176471 0 0 0 0 0.7176471 0 0 0 0 0.7176471 0 0 0 1 0" color-interpolation-filters="sRGB" />
    </filter>
    <path d="M0 306L1078 306L1078 0L0 0L0 306Z" id="path_1" />
    <clipPath id="mask_1">
      <use xlink:href="#path_1" />
    </clipPath>
  </defs>
  <g id="Group-7">
    <g id="Rectangle-13-Copy-Mask">
      <path d="M0 306L1078 306L1078 0L0 0L0 306Z" id="Mask" fill="#FFFFFF" fill-rule="evenodd" stroke="none" />
      <g clip-path="url(#mask_1)">
        <g id="Group-5" transform="matrix(0.9781476 -0.2079117 0.2079117 0.9781476 104.17163 44.38069)">
          <g id="Group-5-Copy" transform="translate(0.00017118454 228.6814)" filter="url(#filter_1)">
            <g id="Group" transform="translate(2.3841858E-07 0)">
              <path d="M2.70605e-05 17.0453C2.70605e-05 7.63185 7.63114 0.000732422 17.0446 0.000732422C26.4581 0.000732422 34.0892 7.63185 34.0892 17.0453C34.0892 26.4588 26.4581 34.0899 17.0446 34.0899C7.63114 34.0899 2.70605e-05 26.4588 2.70605e-05 17.0453Z" id="Oval" fill="#D3D3D3" fill-rule="evenodd" stroke="none" />
              <path d="M44.7422 17.0448C44.7422 7.63136 52.3733 0.000244141 61.7867 0.000244141C71.2002 0.000244141 78.8313 7.63136 78.8313 17.0448C78.8313 26.4583 71.2002 34.0894 61.7867 34.0894C52.3733 34.0894 44.7422 26.4583 44.7422 17.0448Z" id="Oval-Copy" fill="#D3D3D3" fill-rule="evenodd" stroke="none" />
              <path d="M89.4841 17.0453C89.4841 7.63185 97.1152 0.000732422 106.529 0.000732422C115.942 0.000732422 123.573 7.63185 123.573 17.0453C123.573 26.4588 115.942 34.0899 106.529 34.0899C97.1152 34.0899 89.4841 26.4588 89.4841 17.0453Z" id="Oval-Copy-2" fill="#D3D3D3" fill-rule="evenodd" stroke="none" />
              <path d="M134.226 17.0448C134.226 7.63136 141.857 0.000244141 151.271 0.000244141C160.684 0.000244141 168.315 7.63136 168.315 17.0448C168.315 26.4583 160.684 34.0894 151.271 34.0894C141.857 34.0894 134.226 26.4583 134.226 17.0448Z" id="Oval-Copy-3" fill="#D3D3D3" fill-rule="evenodd" stroke="none" />
              <path d="M178.968 17.0453C178.968 7.63185 186.599 0.000732422 196.013 0.000732422C205.426 0.000732422 213.057 7.63185 213.057 17.0453C213.057 26.4588 205.426 34.0899 196.013 34.0899C186.599 34.0899 178.968 26.4588 178.968 17.0453Z" id="Oval-Copy-4" fill="#D3D3D3" fill-rule="evenodd" stroke="none" />
              <path d="M223.71 17.0448C223.71 7.63136 231.341 0.000244141 240.755 0.000244141C250.168 0.000244141 257.799 7.63136 257.799 17.0448C257.799 26.4583 250.168 34.0894 240.755 34.0894C231.341 34.0894 223.71 26.4583 223.71 17.0448Z" id="Oval-Copy-5" fill="#D3D3D3" fill-rule="evenodd" stroke="none" />
              <path d="M268.452 17.0453C268.452 7.63185 276.083 0.000732422 285.496 0.000732422C294.91 0.000732422 302.541 7.63185 302.541 17.0453C302.541 26.4588 294.91 34.0899 285.496 34.0899C276.083 34.0899 268.452 26.4588 268.452 17.0453Z" id="Oval-Copy-6" fill="#D3D3D3" fill-rule="evenodd" stroke="none" />
              <path d="M313.194 17.0446C313.194 7.63111 320.825 0 330.239 0C339.652 0 347.283 7.63111 347.283 17.0446C347.283 26.458 339.652 34.0891 330.239 34.0891C320.825 34.0891 313.194 26.458 313.194 17.0446Z" id="Oval-Copy-7" fill="#D3D3D3" fill-rule="evenodd" stroke="none" />
              <path d="M357.936 17.0451C357.936 7.6316 365.567 0.000488281 374.981 0.000488281C384.394 0.000488281 392.025 7.6316 392.025 17.0451C392.025 26.4585 384.394 34.0896 374.981 34.0896C365.567 34.0896 357.936 26.4585 357.936 17.0451Z" id="Oval-Copy-8" fill="#D3D3D3" fill-rule="evenodd" stroke="none" />
              <path d="M402.678 17.0451C402.678 7.6316 410.309 0.000488281 419.723 0.000488281C429.136 0.000488281 436.767 7.6316 436.767 17.0451C436.767 26.4585 429.136 34.0896 419.723 34.0896C410.309 34.0896 402.678 26.4585 402.678 17.0451Z" id="Oval-Copy-9" fill="#D3D3D3" fill-rule="evenodd" stroke="none" />
              <path d="M447.42 17.0451C447.42 7.6316 455.051 0.000488281 464.465 0.000488281C473.878 0.000488281 481.509 7.6316 481.509 17.0451C481.509 26.4585 473.878 34.0896 464.465 34.0896C455.051 34.0896 447.42 26.4585 447.42 17.0451Z" id="Oval-Copy-10" fill="#D3D3D3" fill-rule="evenodd" stroke="none" />
            </g>
            <g id="Group-Copy" transform="translate(0.00020074844 45.806885)">
              <path d="M2.68221e-05 17.0453C2.68221e-05 7.63184 7.63114 0.000732422 17.0446 0.000732422C26.4581 0.000732422 34.0892 7.63184 34.0892 17.0453C34.0892 26.4588 26.4581 34.0899 17.0446 34.0899C7.63114 34.0899 2.68221e-05 26.4588 2.68221e-05 17.0453Z" id="Oval" fill="#D3D3D3" fill-rule="evenodd" stroke="none" />
              <path d="M44.7421 17.0446C44.7421 7.63111 52.3732 0 61.7867 0C71.2001 0 78.8312 7.63111 78.8312 17.0446C78.8312 26.458 71.2001 34.0891 61.7867 34.0891C52.3732 34.0891 44.7421 26.458 44.7421 17.0446Z" id="Oval-Copy" fill="#D3D3D3" fill-rule="evenodd" stroke="none" />
              <path d="M89.4841 17.0451C89.4841 7.6316 97.1152 0.000488281 106.529 0.000488281C115.942 0.000488281 123.573 7.6316 123.573 17.0451C123.573 26.4585 115.942 34.0896 106.529 34.0896C97.1152 34.0896 89.4841 26.4585 89.4841 17.0451Z" id="Oval-Copy-2" fill="#D3D3D3" fill-rule="evenodd" stroke="none" />
              <path d="M134.226 17.0451C134.226 7.6316 141.857 0.000488281 151.271 0.000488281C160.684 0.000488281 168.315 7.6316 168.315 17.0451C168.315 26.4585 160.684 34.0896 151.271 34.0896C141.857 34.0896 134.226 26.4585 134.226 17.0451Z" id="Oval-Copy-3" fill="#D3D3D3" fill-rule="evenodd" stroke="none" />
              <path d="M178.968 17.0451C178.968 7.6316 186.599 0.000488281 196.013 0.000488281C205.426 0.000488281 213.057 7.6316 213.057 17.0451C213.057 26.4585 205.426 34.0896 196.013 34.0896C186.599 34.0896 178.968 26.4585 178.968 17.0451Z" id="Oval-Copy-4" fill="#D3D3D3" fill-rule="evenodd" stroke="none" />
              <path d="M223.71 17.0451C223.71 7.6316 231.341 0.000488281 240.755 0.000488281C250.168 0.000488281 257.799 7.6316 257.799 17.0451C257.799 26.4585 250.168 34.0896 240.755 34.0896C231.341 34.0896 223.71 26.4585 223.71 17.0451Z" id="Oval-Copy-5" fill="#D3D3D3" fill-rule="evenodd" stroke="none" />
              <path d="M268.452 17.0453C268.452 7.63184 276.083 0.000732422 285.496 0.000732422C294.91 0.000732422 302.541 7.63184 302.541 17.0453C302.541 26.4588 294.91 34.0899 285.496 34.0899C276.083 34.0899 268.452 26.4588 268.452 17.0453Z" id="Oval-Copy-6" fill="#D3D3D3" fill-rule="evenodd" stroke="none" />
              <path d="M313.194 17.0453C313.194 7.63184 320.825 0.000732422 330.239 0.000732422C339.652 0.000732422 347.283 7.63184 347.283 17.0453C347.283 26.4588 339.652 34.0899 330.239 34.0899C320.825 34.0899 313.194 26.4588 313.194 17.0453Z" id="Oval-Copy-7" fill="#D3D3D3" fill-rule="evenodd" stroke="none" />
              <path d="M357.936 17.0451C357.936 7.6316 365.567 0.000488281 374.981 0.000488281C384.394 0.000488281 392.025 7.6316 392.025 17.0451C392.025 26.4585 384.394 34.0896 374.981 34.0896C365.567 34.0896 357.936 26.4585 357.936 17.0451Z" id="Oval-Copy-8" fill="#D3D3D3" fill-rule="evenodd" stroke="none" />
              <path d="M402.678 17.0453C402.678 7.63184 410.309 0.000732422 419.723 0.000732422C429.136 0.000732422 436.767 7.63184 436.767 17.0453C436.767 26.4588 429.136 34.0899 419.723 34.0899C410.309 34.0899 402.678 26.4588 402.678 17.0453Z" id="Oval-Copy-9" fill="#D3D3D3" fill-rule="evenodd" stroke="none" />
              <path d="M447.42 17.0446C447.42 7.63111 455.051 0 464.465 0C473.878 0 481.509 7.63111 481.509 17.0446C481.509 26.458 473.878 34.0891 464.465 34.0891C455.051 34.0891 447.42 26.458 447.42 17.0446Z" id="Oval-Copy-10" fill="#D3D3D3" fill-rule="evenodd" stroke="none" />
            </g>
            <g id="Group-Copy-2" transform="translate(0.00016248226 91.61377)">
              <path d="M223.71 17.0451C223.71 7.63161 231.341 0.000488281 240.754 0.000488281C250.168 0.000488281 257.799 7.63161 257.799 17.0451C257.799 26.4585 250.168 34.0896 240.754 34.0896C231.341 34.0896 223.71 26.4585 223.71 17.0451Z" id="Oval-Copy-5" fill="#D3D3D3" fill-rule="evenodd" stroke="none" />
              <path d="M268.452 17.0456C268.452 7.63209 276.083 0.000976562 285.496 0.000976562C294.91 0.000976562 302.541 7.63209 302.541 17.0456C302.541 26.459 294.91 34.0901 285.496 34.0901C276.083 34.0901 268.452 26.459 268.452 17.0456Z" id="Oval-Copy-6" fill="#D3D3D3" fill-rule="evenodd" stroke="none" />
              <path d="M313.194 17.0448C313.194 7.63136 320.825 0.000244141 330.238 0.000244141C339.652 0.000244141 347.283 7.63136 347.283 17.0448C347.283 26.4583 339.652 34.0894 330.238 34.0894C320.825 34.0894 313.194 26.4583 313.194 17.0448Z" id="Oval-Copy-7" fill="#D3D3D3" fill-rule="evenodd" stroke="none" />
              <path d="M357.936 17.0453C357.936 7.63185 365.567 0.000732422 374.98 0.000732422C384.394 0.000732422 392.025 7.63185 392.025 17.0453C392.025 26.4588 384.394 34.0899 374.98 34.0899C365.567 34.0899 357.936 26.4588 357.936 17.0453Z" id="Oval-Copy-8" fill="#D3D3D3" fill-rule="evenodd" stroke="none" />
              <path d="M402.678 17.0456C402.678 7.63209 410.309 0.000976562 419.722 0.000976562C429.136 0.000976562 436.767 7.63209 436.767 17.0456C436.767 26.459 429.136 34.0901 419.722 34.0901C410.309 34.0901 402.678 26.459 402.678 17.0456Z" id="Oval-Copy-9" fill="#D3D3D3" fill-rule="evenodd" stroke="none" />
              <path d="M447.42 17.0451C447.42 7.63161 455.051 0.000488281 464.464 0.000488281C473.878 0.000488281 481.509 7.63161 481.509 17.0451C481.509 26.4585 473.878 34.0896 464.464 34.0896C455.051 34.0896 447.42 26.4585 447.42 17.0451Z" id="Oval-Copy-10" fill="#D3D3D3" fill-rule="evenodd" stroke="none" />
            </g>
            <g id="Group-Copy-3" transform="translate(0.00017797947 137.42212)">
              <path d="M447.42 17.0448C447.42 7.63136 455.051 0.000244141 464.465 0.000244141C473.878 0.000244141 481.509 7.63136 481.509 17.0448C481.509 26.4583 473.878 34.0894 464.465 34.0894C455.051 34.0894 447.42 26.4583 447.42 17.0448Z" id="Oval-Copy-10" fill="#D3D3D3" fill-rule="evenodd" stroke="none" />
            </g>
          </g>
          <g id="Group-5-Copy-2" filter="url(#filter_1)">
            <g id="Group" transform="translate(5.9723854E-05 0)">
              <path d="M1.78814e-05 17.0451C1.78814e-05 7.6316 7.63113 0.000488281 17.0446 0.000488281C26.458 0.000488281 34.0892 7.6316 34.0892 17.0451C34.0892 26.4585 26.458 34.0896 17.0446 34.0896C7.63113 34.0896 1.78814e-05 26.4585 1.78814e-05 17.0451Z" id="Oval" fill="#D3D3D3" fill-rule="evenodd" stroke="none" />
              <path d="M44.7421 17.0446C44.7421 7.63111 52.3732 0 61.7867 0C71.2001 0 78.8312 7.63111 78.8312 17.0446C78.8312 26.458 71.2001 34.0891 61.7867 34.0891C52.3732 34.0891 44.7421 26.458 44.7421 17.0446Z" id="Oval-Copy" fill="#D3D3D3" fill-rule="evenodd" stroke="none" />
              <path d="M89.484 17.0453C89.484 7.63185 97.1151 0.000732422 106.529 0.000732422C115.942 0.000732422 123.573 7.63185 123.573 17.0453C123.573 26.4588 115.942 34.0899 106.529 34.0899C97.1151 34.0899 89.484 26.4588 89.484 17.0453Z" id="Oval-Copy-2" fill="#D3D3D3" fill-rule="evenodd" stroke="none" />
              <path d="M134.226 17.0453C134.226 7.63185 141.857 0.000732422 151.271 0.000732422C160.684 0.000732422 168.315 7.63185 168.315 17.0453C168.315 26.4588 160.684 34.0899 151.271 34.0899C141.857 34.0899 134.226 26.4588 134.226 17.0453Z" id="Oval-Copy-3" fill="#D3D3D3" fill-rule="evenodd" stroke="none" />
              <path d="M178.968 17.0453C178.968 7.63185 186.599 0.000732422 196.013 0.000732422C205.426 0.000732422 213.057 7.63185 213.057 17.0453C213.057 26.4588 205.426 34.0899 196.013 34.0899C186.599 34.0899 178.968 26.4588 178.968 17.0453Z" id="Oval-Copy-4" fill="#D3D3D3" fill-rule="evenodd" stroke="none" />
              <path d="M223.71 17.0453C223.71 7.63185 231.341 0.000732422 240.755 0.000732422C250.168 0.000732422 257.799 7.63185 257.799 17.0453C257.799 26.4588 250.168 34.0899 240.755 34.0899C231.341 34.0899 223.71 26.4588 223.71 17.0453Z" id="Oval-Copy-5" fill="#D3D3D3" fill-rule="evenodd" stroke="none" />
              <path d="M268.452 17.0453C268.452 7.63185 276.083 0.000732422 285.497 0.000732422C294.91 0.000732422 302.541 7.63185 302.541 17.0453C302.541 26.4588 294.91 34.0899 285.497 34.0899C276.083 34.0899 268.452 26.4588 268.452 17.0453Z" id="Oval-Copy-6" fill="#D3D3D3" fill-rule="evenodd" stroke="none" />
              <path d="M313.194 17.0453C313.194 7.63185 320.825 0.000732422 330.239 0.000732422C339.652 0.000732422 347.283 7.63185 347.283 17.0453C347.283 26.4588 339.652 34.0899 330.239 34.0899C320.825 34.0899 313.194 26.4588 313.194 17.0453Z" id="Oval-Copy-7" fill="#D3D3D3" fill-rule="evenodd" stroke="none" />
              <path d="M357.936 17.0453C357.936 7.63185 365.567 0.000732422 374.98 0.000732422C384.394 0.000732422 392.025 7.63185 392.025 17.0453C392.025 26.4588 384.394 34.0899 374.98 34.0899C365.567 34.0899 357.936 26.4588 357.936 17.0453Z" id="Oval-Copy-8" fill="#D3D3D3" fill-rule="evenodd" stroke="none" />
            </g>
            <g id="Group-Copy" transform="translate(0.00014984608 45.80713)">
              <path d="M1.78814e-05 17.0451C1.78814e-05 7.6316 7.63113 0.000488281 17.0446 0.000488281C26.458 0.000488281 34.0892 7.6316 34.0892 17.0451C34.0892 26.4585 26.458 34.0896 17.0446 34.0896C7.63113 34.0896 1.78814e-05 26.4585 1.78814e-05 17.0451Z" id="Oval" fill="#D3D3D3" fill-rule="evenodd" stroke="none" />
              <path d="M44.742 17.0451C44.742 7.6316 52.3731 0.000488281 61.7866 0.000488281C71.2 0.000488281 78.8311 7.6316 78.8311 17.0451C78.8311 26.4585 71.2 34.0896 61.7866 34.0896C52.3731 34.0896 44.742 26.4585 44.742 17.0451Z" id="Oval-Copy" fill="#D3D3D3" fill-rule="evenodd" stroke="none" />
              <path d="M89.484 17.0448C89.484 7.63136 97.1151 0.000244141 106.529 0.000244141C115.942 0.000244141 123.573 7.63136 123.573 17.0448C123.573 26.4583 115.942 34.0894 106.529 34.0894C97.1151 34.0894 89.484 26.4583 89.484 17.0448Z" id="Oval-Copy-2" fill="#D3D3D3" fill-rule="evenodd" stroke="none" />
              <path d="M134.226 17.0448C134.226 7.63136 141.857 0.000244141 151.271 0.000244141C160.684 0.000244141 168.315 7.63136 168.315 17.0448C168.315 26.4583 160.684 34.0894 151.271 34.0894C141.857 34.0894 134.226 26.4583 134.226 17.0448Z" id="Oval-Copy-3" fill="#D3D3D3" fill-rule="evenodd" stroke="none" />
              <path d="M178.968 17.0448C178.968 7.63136 186.599 0.000244141 196.013 0.000244141C205.426 0.000244141 213.057 7.63136 213.057 17.0448C213.057 26.4583 205.426 34.0894 196.013 34.0894C186.599 34.0894 178.968 26.4583 178.968 17.0448Z" id="Oval-Copy-4" fill="#D3D3D3" fill-rule="evenodd" stroke="none" />
              <path d="M223.71 17.0451C223.71 7.6316 231.341 0.000488281 240.754 0.000488281C250.168 0.000488281 257.799 7.6316 257.799 17.0451C257.799 26.4585 250.168 34.0896 240.754 34.0896C231.341 34.0896 223.71 26.4585 223.71 17.0451Z" id="Oval-Copy-5" fill="#D3D3D3" fill-rule="evenodd" stroke="none" />
              <path d="M268.452 17.0448C268.452 7.63136 276.083 0.000244141 285.497 0.000244141C294.91 0.000244141 302.541 7.63136 302.541 17.0448C302.541 26.4583 294.91 34.0894 285.497 34.0894C276.083 34.0894 268.452 26.4583 268.452 17.0448Z" id="Oval-Copy-6" fill="#D3D3D3" fill-rule="evenodd" stroke="none" />
              <path d="M313.194 17.0448C313.194 7.63136 320.825 0.000244141 330.239 0.000244141C339.652 0.000244141 347.283 7.63136 347.283 17.0448C347.283 26.4583 339.652 34.0894 330.239 34.0894C320.825 34.0894 313.194 26.4583 313.194 17.0448Z" id="Oval-Copy-7" fill="#D3D3D3" fill-rule="evenodd" stroke="none" />
              <path d="M357.936 17.0446C357.936 7.63111 365.567 0 374.981 0C384.394 0 392.025 7.63111 392.025 17.0446C392.025 26.458 384.394 34.0891 374.981 34.0891C365.567 34.0891 357.936 26.458 357.936 17.0446Z" id="Oval-Copy-8" fill="#D3D3D3" fill-rule="evenodd" stroke="none" />
              <path d="M402.678 17.0453C402.678 7.63185 410.309 0.000732422 419.722 0.000732422C429.136 0.000732422 436.767 7.63185 436.767 17.0453C436.767 26.4588 429.136 34.0899 419.722 34.0899C410.309 34.0899 402.678 26.4588 402.678 17.0453Z" id="Oval-Copy-9" fill="#D3D3D3" fill-rule="evenodd" stroke="none" />
              <path d="M447.42 17.0448C447.42 7.63136 455.051 0.000244141 464.464 0.000244141C473.878 0.000244141 481.509 7.63136 481.509 17.0448C481.509 26.4583 473.878 34.0894 464.464 34.0894C455.051 34.0894 447.42 26.4583 447.42 17.0448Z" id="Oval-Copy-10" fill="#D3D3D3" fill-rule="evenodd" stroke="none" />
            </g>
            <g id="Group-Copy-2" transform="translate(0.00014734268 91.61499)">
              <path d="M0 17.0446C0 7.63112 7.63111 0 17.0446 0C26.458 0 34.0891 7.63112 34.0891 17.0446C34.0891 26.458 26.458 34.0892 17.0446 34.0892C7.63111 34.0892 0 26.458 0 17.0446Z" id="Oval" fill="#D3D3D3" fill-rule="evenodd" stroke="none" />
              <path d="M44.7419 17.0451C44.7419 7.63161 52.373 0.000488281 61.7864 0.000488281C71.1999 0.000488281 78.831 7.63161 78.831 17.0451C78.831 26.4585 71.1999 34.0896 61.7864 34.0896C52.373 34.0896 44.7419 26.4585 44.7419 17.0451Z" id="Oval-Copy" fill="#D3D3D3" fill-rule="evenodd" stroke="none" />
              <path d="M89.4841 17.0448C89.4841 7.63136 97.1152 0.000244141 106.529 0.000244141C115.942 0.000244141 123.573 7.63136 123.573 17.0448C123.573 26.4583 115.942 34.0894 106.529 34.0894C97.1152 34.0894 89.4841 26.4583 89.4841 17.0448Z" id="Oval-Copy-2" fill="#D3D3D3" fill-rule="evenodd" stroke="none" />
              <path d="M134.226 17.0446C134.226 7.63112 141.857 0 151.271 0C160.684 0 168.315 7.63112 168.315 17.0446C168.315 26.458 160.684 34.0892 151.271 34.0892C141.857 34.0892 134.226 26.458 134.226 17.0446Z" id="Oval-Copy-3" fill="#D3D3D3" fill-rule="evenodd" stroke="none" />
              <path d="M178.968 17.0446C178.968 7.63112 186.599 0 196.013 0C205.426 0 213.057 7.63112 213.057 17.0446C213.057 26.458 205.426 34.0892 196.013 34.0892C186.599 34.0892 178.968 26.458 178.968 17.0446Z" id="Oval-Copy-4" fill="#D3D3D3" fill-rule="evenodd" stroke="none" />
              <path d="M223.71 17.0448C223.71 7.63136 231.341 0.000244141 240.755 0.000244141C250.168 0.000244141 257.799 7.63136 257.799 17.0448C257.799 26.4583 250.168 34.0894 240.755 34.0894C231.341 34.0894 223.71 26.4583 223.71 17.0448Z" id="Oval-Copy-5" fill="#D3D3D3" fill-rule="evenodd" stroke="none" />
              <path d="M268.452 17.0448C268.452 7.63136 276.083 0.000244141 285.497 0.000244141C294.91 0.000244141 302.541 7.63136 302.541 17.0448C302.541 26.4583 294.91 34.0894 285.497 34.0894C276.083 34.0894 268.452 26.4583 268.452 17.0448Z" id="Oval-Copy-6" fill="#D3D3D3" fill-rule="evenodd" stroke="none" />
              <path d="M313.194 17.0446C313.194 7.63112 320.825 0 330.239 0C339.652 0 347.283 7.63112 347.283 17.0446C347.283 26.458 339.652 34.0892 330.239 34.0892C320.825 34.0892 313.194 26.458 313.194 17.0446Z" id="Oval-Copy-7" fill="#D3D3D3" fill-rule="evenodd" stroke="none" />
              <path d="M357.936 17.0446C357.936 7.63112 365.567 0 374.981 0C384.394 0 392.025 7.63112 392.025 17.0446C392.025 26.458 384.394 34.0892 374.981 34.0892C365.567 34.0892 357.936 26.458 357.936 17.0446Z" id="Oval-Copy-8" fill="#D3D3D3" fill-rule="evenodd" stroke="none" />
              <path d="M402.678 17.0446C402.678 7.63112 410.309 0 419.723 0C429.136 0 436.767 7.63112 436.767 17.0446C436.767 26.458 429.136 34.0892 419.723 34.0892C410.309 34.0892 402.678 26.458 402.678 17.0446Z" id="Oval-Copy-9" fill="#D3D3D3" fill-rule="evenodd" stroke="none" />
              <path d="M447.42 17.0446C447.42 7.63112 455.051 0 464.464 0C473.878 0 481.509 7.63112 481.509 17.0446C481.509 26.458 473.878 34.0892 464.464 34.0892C455.051 34.0892 447.42 26.458 447.42 17.0446Z" id="Oval-Copy-10" fill="#D3D3D3" fill-rule="evenodd" stroke="none" />
            </g>
            <g id="Group-Copy-3" transform="translate(0.00017774105 137.42212)">
              <path d="M8.9407e-06 17.0448C8.9407e-06 7.63135 7.63112 0.000244141 17.0446 0.000244141C26.458 0.000244141 34.0892 7.63135 34.0892 17.0448C34.0892 26.4583 26.458 34.0894 17.0446 34.0894C7.63112 34.0894 8.9407e-06 26.4583 8.9407e-06 17.0448Z" id="Oval" fill="#D3D3D3" fill-rule="evenodd" stroke="none" />
              <path d="M44.7419 17.0451C44.7419 7.6316 52.373 0.000488281 61.7865 0.000488281C71.1999 0.000488281 78.8311 7.6316 78.8311 17.0451C78.8311 26.4585 71.1999 34.0896 61.7865 34.0896C52.373 34.0896 44.7419 26.4585 44.7419 17.0451Z" id="Oval-Copy" fill="#D3D3D3" fill-rule="evenodd" stroke="none" />
              <path d="M89.484 17.0446C89.484 7.63111 97.1151 0 106.529 0C115.942 0 123.573 7.63111 123.573 17.0446C123.573 26.458 115.942 34.0891 106.529 34.0891C97.1151 34.0891 89.484 26.458 89.484 17.0446Z" id="Oval-Copy-2" fill="#D3D3D3" fill-rule="evenodd" stroke="none" />
              <path d="M134.226 17.0446C134.226 7.63111 141.857 0 151.271 0C160.684 0 168.315 7.63111 168.315 17.0446C168.315 26.458 160.684 34.0891 151.271 34.0891C141.857 34.0891 134.226 26.458 134.226 17.0446Z" id="Oval-Copy-3" fill="#D3D3D3" fill-rule="evenodd" stroke="none" />
              <path d="M178.968 17.0446C178.968 7.63111 186.599 0 196.013 0C205.426 0 213.057 7.63111 213.057 17.0446C213.057 26.458 205.426 34.0891 196.013 34.0891C186.599 34.0891 178.968 26.458 178.968 17.0446Z" id="Oval-Copy-4" fill="#D3D3D3" fill-rule="evenodd" stroke="none" />
              <path d="M223.71 17.0448C223.71 7.63135 231.341 0.000244141 240.754 0.000244141C250.168 0.000244141 257.799 7.63135 257.799 17.0448C257.799 26.4583 250.168 34.0894 240.754 34.0894C231.341 34.0894 223.71 26.4583 223.71 17.0448Z" id="Oval-Copy-5" fill="#D3D3D3" fill-rule="evenodd" stroke="none" />
              <path d="M268.452 17.0448C268.452 7.63135 276.083 0.000244141 285.497 0.000244141C294.91 0.000244141 302.541 7.63135 302.541 17.0448C302.541 26.4583 294.91 34.0894 285.497 34.0894C276.083 34.0894 268.452 26.4583 268.452 17.0448Z" id="Oval-Copy-6" fill="#D3D3D3" fill-rule="evenodd" stroke="none" />
              <path d="M313.194 17.0448C313.194 7.63135 320.825 0.000244141 330.239 0.000244141C339.652 0.000244141 347.283 7.63135 347.283 17.0448C347.283 26.4583 339.652 34.0894 330.239 34.0894C320.825 34.0894 313.194 26.4583 313.194 17.0448Z" id="Oval-Copy-7" fill="#D3D3D3" fill-rule="evenodd" stroke="none" />
              <path d="M357.936 17.0451C357.936 7.6316 365.567 0.000488281 374.98 0.000488281C384.394 0.000488281 392.025 7.6316 392.025 17.0451C392.025 26.4585 384.394 34.0896 374.98 34.0896C365.567 34.0896 357.936 26.4585 357.936 17.0451Z" id="Oval-Copy-8" fill="#D3D3D3" fill-rule="evenodd" stroke="none" />
              <path d="M402.678 17.0451C402.678 7.6316 410.309 0.000488281 419.722 0.000488281C429.136 0.000488281 436.767 7.6316 436.767 17.0451C436.767 26.4585 429.136 34.0896 419.722 34.0896C410.309 34.0896 402.678 26.4585 402.678 17.0451Z" id="Oval-Copy-9" fill="#D3D3D3" fill-rule="evenodd" stroke="none" />
              <path d="M447.42 17.0453C447.42 7.63184 455.051 0.000732422 464.465 0.000732422C473.878 0.000732422 481.509 7.63184 481.509 17.0453C481.509 26.4587 473.878 34.0899 464.465 34.0899C455.051 34.0899 447.42 26.4587 447.42 17.0453Z" id="Oval-Copy-10" fill="#D3D3D3" fill-rule="evenodd" stroke="none" />
            </g>
            <g id="Group-Copy-4" transform="translate(3.8027763E-05 183.22949)">
              <path d="M9.17912e-06 17.0448C9.17912e-06 7.63135 7.63112 0.000244141 17.0446 0.000244141C26.458 0.000244141 34.0892 7.63135 34.0892 17.0448C34.0892 26.4583 26.458 34.0894 17.0446 34.0894C7.63112 34.0894 9.17912e-06 26.4583 9.17912e-06 17.0448Z" id="Oval" fill="#D3D3D3" fill-rule="evenodd" stroke="none" />
              <path d="M44.7419 17.0451C44.7419 7.6316 52.373 0.000488281 61.7864 0.000488281C71.1999 0.000488281 78.831 7.6316 78.831 17.0451C78.831 26.4585 71.1999 34.0896 61.7864 34.0896C52.373 34.0896 44.7419 26.4585 44.7419 17.0451Z" id="Oval-Copy" fill="#D3D3D3" fill-rule="evenodd" stroke="none" />
              <path d="M89.4841 17.0446C89.4841 7.63111 97.1152 0 106.529 0C115.942 0 123.573 7.63111 123.573 17.0446C123.573 26.458 115.942 34.0891 106.529 34.0891C97.1152 34.0891 89.4841 26.458 89.4841 17.0446Z" id="Oval-Copy-2" fill="#D3D3D3" fill-rule="evenodd" stroke="none" />
              <path d="M134.226 17.0448C134.226 7.63135 141.857 0.000244141 151.271 0.000244141C160.684 0.000244141 168.315 7.63135 168.315 17.0448C168.315 26.4583 160.684 34.0894 151.271 34.0894C141.857 34.0894 134.226 26.4583 134.226 17.0448Z" id="Oval-Copy-3" fill="#D3D3D3" fill-rule="evenodd" stroke="none" />
              <path d="M178.968 17.0448C178.968 7.63135 186.599 0.000244141 196.013 0.000244141C205.426 0.000244141 213.057 7.63135 213.057 17.0448C213.057 26.4583 205.426 34.0894 196.013 34.0894C186.599 34.0894 178.968 26.4583 178.968 17.0448Z" id="Oval-Copy-4" fill="#D3D3D3" fill-rule="evenodd" stroke="none" />
              <path d="M223.71 17.0448C223.71 7.63135 231.341 0.000244141 240.755 0.000244141C250.168 0.000244141 257.799 7.63135 257.799 17.0448C257.799 26.4583 250.168 34.0894 240.755 34.0894C231.341 34.0894 223.71 26.4583 223.71 17.0448Z" id="Oval-Copy-5" fill="#D3D3D3" fill-rule="evenodd" stroke="none" />
              <path d="M268.452 17.0446C268.452 7.63111 276.083 0 285.497 0C294.91 0 302.541 7.63111 302.541 17.0446C302.541 26.458 294.91 34.0891 285.497 34.0891C276.083 34.0891 268.452 26.458 268.452 17.0446Z" id="Oval-Copy-6" fill="#D3D3D3" fill-rule="evenodd" stroke="none" />
              <path d="M313.194 17.0448C313.194 7.63135 320.825 0.000244141 330.239 0.000244141C339.652 0.000244141 347.283 7.63135 347.283 17.0448C347.283 26.4583 339.652 34.0894 330.239 34.0894C320.825 34.0894 313.194 26.4583 313.194 17.0448Z" id="Oval-Copy-7" fill="#D3D3D3" fill-rule="evenodd" stroke="none" />
              <path d="M357.936 17.0451C357.936 7.6316 365.567 0.000488281 374.981 0.000488281C384.394 0.000488281 392.025 7.6316 392.025 17.0451C392.025 26.4585 384.394 34.0896 374.981 34.0896C365.567 34.0896 357.936 26.4585 357.936 17.0451Z" id="Oval-Copy-8" fill="#D3D3D3" fill-rule="evenodd" stroke="none" />
              <path d="M402.678 17.0448C402.678 7.63135 410.309 0.000244141 419.723 0.000244141C429.136 0.000244141 436.767 7.63135 436.767 17.0448C436.767 26.4583 429.136 34.0894 419.723 34.0894C410.309 34.0894 402.678 26.4583 402.678 17.0448Z" id="Oval-Copy-9" fill="#D3D3D3" fill-rule="evenodd" stroke="none" />
              <path d="M447.42 17.0446C447.42 7.63111 455.051 0 464.464 0C473.878 0 481.509 7.63111 481.509 17.0446C481.509 26.458 473.878 34.0891 464.464 34.0891C455.051 34.0891 447.42 26.458 447.42 17.0446Z" id="Oval-Copy-10" fill="#D3D3D3" fill-rule="evenodd" stroke="none" />
            </g>
          </g>
          <g id="Group-5-Copy-3" transform="translate(491.45187 228.68091)" filter="url(#filter_1)">
            <g id="Group" transform="translate(9.1552734E-05 0)">
              <path d="M-3.05176e-05 17.0453C-3.05176e-05 7.63185 7.63108 0.000732422 17.0445 0.000732422C26.458 0.000732422 34.0891 7.63185 34.0891 17.0453C34.0891 26.4588 26.458 34.0899 17.0445 34.0899C7.63108 34.0899 -3.05176e-05 26.4588 -3.05176e-05 17.0453Z" id="Oval" fill="#D3D3D3" fill-rule="evenodd" stroke="none" />
              <path d="M44.7419 17.0446C44.7419 7.63111 52.3731 0 61.7865 0C71.2 0 78.8311 7.63111 78.8311 17.0446C78.8311 26.458 71.2 34.0891 61.7865 34.0891C52.3731 34.0891 44.7419 26.458 44.7419 17.0446Z" id="Oval-Copy" fill="#D3D3D3" fill-rule="evenodd" stroke="none" />
              <path d="M89.4839 17.0451C89.4839 7.6316 97.115 0.000488281 106.528 0.000488281C115.942 0.000488281 123.573 7.6316 123.573 17.0451C123.573 26.4585 115.942 34.0896 106.528 34.0896C97.115 34.0896 89.4839 26.4585 89.4839 17.0451Z" id="Oval-Copy-2" fill="#D3D3D3" fill-rule="evenodd" stroke="none" />
              <path d="M134.226 17.0448C134.226 7.63136 141.857 0.000244141 151.27 0.000244141C160.684 0.000244141 168.315 7.63136 168.315 17.0448C168.315 26.4583 160.684 34.0894 151.27 34.0894C141.857 34.0894 134.226 26.4583 134.226 17.0448Z" id="Oval-Copy-3" fill="#D3D3D3" fill-rule="evenodd" stroke="none" />
              <path d="M178.968 17.0451C178.968 7.6316 186.599 0.000488281 196.012 0.000488281C205.426 0.000488281 213.057 7.6316 213.057 17.0451C213.057 26.4585 205.426 34.0896 196.012 34.0896C186.599 34.0896 178.968 26.4585 178.968 17.0451Z" id="Oval-Copy-4" fill="#D3D3D3" fill-rule="evenodd" stroke="none" />
              <path d="M223.71 17.0448C223.71 7.63136 231.341 0.000244141 240.754 0.000244141C250.168 0.000244141 257.799 7.63136 257.799 17.0448C257.799 26.4583 250.168 34.0894 240.754 34.0894C231.341 34.0894 223.71 26.4583 223.71 17.0448Z" id="Oval-Copy-5" fill="#D3D3D3" fill-rule="evenodd" stroke="none" />
              <path d="M268.452 17.0453C268.452 7.63185 276.083 0.000732422 285.496 0.000732422C294.91 0.000732422 302.541 7.63185 302.541 17.0453C302.541 26.4588 294.91 34.0899 285.496 34.0899C276.083 34.0899 268.452 26.4588 268.452 17.0453Z" id="Oval-Copy-6" fill="#D3D3D3" fill-rule="evenodd" stroke="none" />
              <path d="M313.194 17.0451C313.194 7.6316 320.825 0.000488281 330.239 0.000488281C339.652 0.000488281 347.283 7.6316 347.283 17.0451C347.283 26.4585 339.652 34.0896 330.239 34.0896C320.825 34.0896 313.194 26.4585 313.194 17.0451Z" id="Oval-Copy-7" fill="#D3D3D3" fill-rule="evenodd" stroke="none" />
              <path d="M357.936 17.0453C357.936 7.63185 365.567 0.000732422 374.981 0.000732422C384.394 0.000732422 392.025 7.63185 392.025 17.0453C392.025 26.4588 384.394 34.0899 374.981 34.0899C365.567 34.0899 357.936 26.4588 357.936 17.0453Z" id="Oval-Copy-8" fill="#D3D3D3" fill-rule="evenodd" stroke="none" />
              <path d="M402.678 17.0448C402.678 7.63136 410.309 0.000244141 419.723 0.000244141C429.136 0.000244141 436.767 7.63136 436.767 17.0448C436.767 26.4583 429.136 34.0894 419.723 34.0894C410.309 34.0894 402.678 26.4583 402.678 17.0448Z" id="Oval-Copy-9" fill="#D3D3D3" fill-rule="evenodd" stroke="none" />
              <path d="M447.42 17.0451C447.42 7.6316 455.051 0.000488281 464.464 0.000488281C473.878 0.000488281 481.509 7.6316 481.509 17.0451C481.509 26.4585 473.878 34.0896 464.464 34.0896C455.051 34.0896 447.42 26.4585 447.42 17.0451Z" id="Oval-Copy-10" fill="#D3D3D3" fill-rule="evenodd" stroke="none" />
            </g>
            <g id="Group-Copy" transform="translate(0 45.807373)">
              <path d="M-6.10352e-05 17.0453C-6.10352e-05 7.63185 7.63105 0.000732422 17.0445 0.000732422C26.458 0.000732422 34.0891 7.63185 34.0891 17.0453C34.0891 26.4588 26.458 34.0899 17.0445 34.0899C7.63105 34.0899 -6.10352e-05 26.4588 -6.10352e-05 17.0453Z" id="Oval" fill="#D3D3D3" fill-rule="evenodd" stroke="none" />
              <path d="M44.7421 17.0446C44.7421 7.63111 52.3732 0 61.7866 0C71.2001 0 78.8312 7.63111 78.8312 17.0446C78.8312 26.458 71.2001 34.0891 61.7866 34.0891C52.3732 34.0891 44.7421 26.458 44.7421 17.0446Z" id="Oval-Copy" fill="#D3D3D3" fill-rule="evenodd" stroke="none" />
              <path d="M89.4839 17.0451C89.4839 7.6316 97.115 0.000488281 106.528 0.000488281C115.942 0.000488281 123.573 7.6316 123.573 17.0451C123.573 26.4585 115.942 34.0896 106.528 34.0896C97.115 34.0896 89.4839 26.4585 89.4839 17.0451Z" id="Oval-Copy-2" fill="#D3D3D3" fill-rule="evenodd" stroke="none" />
              <path d="M134.226 17.0448C134.226 7.63136 141.857 0.000244141 151.271 0.000244141C160.684 0.000244141 168.315 7.63136 168.315 17.0448C168.315 26.4583 160.684 34.0894 151.271 34.0894C141.857 34.0894 134.226 26.4583 134.226 17.0448Z" id="Oval-Copy-3" fill="#D3D3D3" fill-rule="evenodd" stroke="none" />
              <path d="M178.968 17.0448C178.968 7.63136 186.599 0.000244141 196.012 0.000244141C205.426 0.000244141 213.057 7.63136 213.057 17.0448C213.057 26.4583 205.426 34.0894 196.012 34.0894C186.599 34.0894 178.968 26.4583 178.968 17.0448Z" id="Oval-Copy-4" fill="#D3D3D3" fill-rule="evenodd" stroke="none" />
              <path d="M223.71 17.0448C223.71 7.63136 231.341 0.000244141 240.754 0.000244141C250.168 0.000244141 257.799 7.63136 257.799 17.0448C257.799 26.4583 250.168 34.0894 240.754 34.0894C231.341 34.0894 223.71 26.4583 223.71 17.0448Z" id="Oval-Copy-5" fill="#D3D3D3" fill-rule="evenodd" stroke="none" />
              <path d="M268.452 17.0451C268.452 7.6316 276.083 0.000488281 285.496 0.000488281C294.91 0.000488281 302.541 7.6316 302.541 17.0451C302.541 26.4585 294.91 34.0896 285.496 34.0896C276.083 34.0896 268.452 26.4585 268.452 17.0451Z" id="Oval-Copy-6" fill="#D3D3D3" fill-rule="evenodd" stroke="none" />
              <path d="M313.194 17.0448C313.194 7.63136 320.825 0.000244141 330.239 0.000244141C339.652 0.000244141 347.283 7.63136 347.283 17.0448C347.283 26.4583 339.652 34.0894 330.239 34.0894C320.825 34.0894 313.194 26.4583 313.194 17.0448Z" id="Oval-Copy-7" fill="#D3D3D3" fill-rule="evenodd" stroke="none" />
              <path d="M357.936 17.0451C357.936 7.6316 365.567 0.000488281 374.98 0.000488281C384.394 0.000488281 392.025 7.6316 392.025 17.0451C392.025 26.4585 384.394 34.0896 374.98 34.0896C365.567 34.0896 357.936 26.4585 357.936 17.0451Z" id="Oval-Copy-8" fill="#D3D3D3" fill-rule="evenodd" stroke="none" />
              <path d="M402.678 17.0448C402.678 7.63136 410.309 0.000244141 419.722 0.000244141C429.136 0.000244141 436.767 7.63136 436.767 17.0448C436.767 26.4583 429.136 34.0894 419.722 34.0894C410.309 34.0894 402.678 26.4583 402.678 17.0448Z" id="Oval-Copy-9" fill="#D3D3D3" fill-rule="evenodd" stroke="none" />
            </g>
            <g id="Group-Copy-2" transform="translate(3.0517578E-05 91.614746)">
              <path d="M-9.15527e-05 17.0456C-9.15527e-05 7.63209 7.63102 0.000976562 17.0445 0.000976562C26.4579 0.000976562 34.0891 7.63209 34.0891 17.0456C34.0891 26.459 26.4579 34.0901 17.0445 34.0901C7.63102 34.0901 -9.15527e-05 26.459 -9.15527e-05 17.0456Z" id="Oval" fill="#D3D3D3" fill-rule="evenodd" stroke="none" />
              <path d="M44.7421 17.0446C44.7421 7.63112 52.3732 0 61.7867 0C71.2001 0 78.8312 7.63112 78.8312 17.0446C78.8312 26.458 71.2001 34.0891 61.7867 34.0891C52.3732 34.0891 44.7421 26.458 44.7421 17.0446Z" id="Oval-Copy" fill="#D3D3D3" fill-rule="evenodd" stroke="none" />
              <path d="M89.4839 17.0453C89.4839 7.63185 97.115 0.000732422 106.528 0.000732422C115.942 0.000732422 123.573 7.63185 123.573 17.0453C123.573 26.4588 115.942 34.0899 106.528 34.0899C97.115 34.0899 89.4839 26.4588 89.4839 17.0453Z" id="Oval-Copy-2" fill="#D3D3D3" fill-rule="evenodd" stroke="none" />
              <path d="M134.226 17.0451C134.226 7.6316 141.857 0.000488281 151.271 0.000488281C160.684 0.000488281 168.315 7.6316 168.315 17.0451C168.315 26.4585 160.684 34.0896 151.271 34.0896C141.857 34.0896 134.226 26.4585 134.226 17.0451Z" id="Oval-Copy-3" fill="#D3D3D3" fill-rule="evenodd" stroke="none" />
              <path d="M178.968 17.0453C178.968 7.63185 186.599 0.000732422 196.013 0.000732422C205.426 0.000732422 213.057 7.63185 213.057 17.0453C213.057 26.4588 205.426 34.0899 196.013 34.0899C186.599 34.0899 178.968 26.4588 178.968 17.0453Z" id="Oval-Copy-4" fill="#D3D3D3" fill-rule="evenodd" stroke="none" />
              <path d="M223.71 17.0451C223.71 7.6316 231.341 0.000488281 240.754 0.000488281C250.168 0.000488281 257.799 7.6316 257.799 17.0451C257.799 26.4585 250.168 34.0896 240.754 34.0896C231.341 34.0896 223.71 26.4585 223.71 17.0451Z" id="Oval-Copy-5" fill="#D3D3D3" fill-rule="evenodd" stroke="none" />
              <path d="M268.452 17.0453C268.452 7.63185 276.083 0.000732422 285.497 0.000732422C294.91 0.000732422 302.541 7.63185 302.541 17.0453C302.541 26.4588 294.91 34.0899 285.497 34.0899C276.083 34.0899 268.452 26.4588 268.452 17.0453Z" id="Oval-Copy-6" fill="#D3D3D3" fill-rule="evenodd" stroke="none" />
              <path d="M313.194 17.0456C313.194 7.63209 320.825 0.000976562 330.238 0.000976562C339.652 0.000976562 347.283 7.63209 347.283 17.0456C347.283 26.459 339.652 34.0901 330.238 34.0901C320.825 34.0901 313.194 26.459 313.194 17.0456Z" id="Oval-Copy-7" fill="#D3D3D3" fill-rule="evenodd" stroke="none" />
              <path d="M357.936 17.0451C357.936 7.6316 365.567 0.000488281 374.981 0.000488281C384.394 0.000488281 392.025 7.6316 392.025 17.0451C392.025 26.4585 384.394 34.0896 374.981 34.0896C365.567 34.0896 357.936 26.4585 357.936 17.0451Z" id="Oval-Copy-8" fill="#D3D3D3" fill-rule="evenodd" stroke="none" />
              <path d="M402.678 17.0456C402.678 7.63209 410.309 0.000976562 419.722 0.000976562C429.136 0.000976562 436.767 7.63209 436.767 17.0456C436.767 26.459 429.136 34.0901 419.722 34.0901C410.309 34.0901 402.678 26.459 402.678 17.0456Z" id="Oval-Copy-9" fill="#D3D3D3" fill-rule="evenodd" stroke="none" />
            </g>
            <g id="Group-Copy-3" transform="translate(-9.1552734E-05 137.42236)">
              <path d="M-0.00012207 17.0451C-0.00012207 7.6316 7.63099 0.000488281 17.0444 0.000488281C26.4579 0.000488281 34.089 7.6316 34.089 17.0451C34.089 26.4585 26.4579 34.0896 17.0444 34.0896C7.63099 34.0896 -0.00012207 26.4585 -0.00012207 17.0451Z" id="Oval" fill="#D3D3D3" fill-rule="evenodd" stroke="none" />
              <path d="M44.742 17.0446C44.742 7.63111 52.3731 0 61.7865 0C71.2 0 78.8311 7.63111 78.8311 17.0446C78.8311 26.458 71.2 34.0891 61.7865 34.0891C52.3731 34.0891 44.742 26.458 44.742 17.0446Z" id="Oval-Copy" fill="#D3D3D3" fill-rule="evenodd" stroke="none" />
              <path d="M89.4839 17.0448C89.4839 7.63136 97.115 0.000244141 106.528 0.000244141C115.942 0.000244141 123.573 7.63136 123.573 17.0448C123.573 26.4583 115.942 34.0894 106.528 34.0894C97.115 34.0894 89.4839 26.4583 89.4839 17.0448Z" id="Oval-Copy-2" fill="#D3D3D3" fill-rule="evenodd" stroke="none" />
              <path d="M134.226 17.0446C134.226 7.63111 141.857 0 151.27 0C160.684 0 168.315 7.63111 168.315 17.0446C168.315 26.458 160.684 34.0891 151.27 34.0891C141.857 34.0891 134.226 26.458 134.226 17.0446Z" id="Oval-Copy-3" fill="#D3D3D3" fill-rule="evenodd" stroke="none" />
              <path d="M178.968 17.0448C178.968 7.63136 186.599 0.000244141 196.012 0.000244141C205.426 0.000244141 213.057 7.63136 213.057 17.0448C213.057 26.4583 205.426 34.0894 196.012 34.0894C186.599 34.0894 178.968 26.4583 178.968 17.0448Z" id="Oval-Copy-4" fill="#D3D3D3" fill-rule="evenodd" stroke="none" />
              <path d="M223.71 17.0448C223.71 7.63136 231.341 0.000244141 240.754 0.000244141C250.168 0.000244141 257.799 7.63136 257.799 17.0448C257.799 26.4583 250.168 34.0894 240.754 34.0894C231.341 34.0894 223.71 26.4583 223.71 17.0448Z" id="Oval-Copy-5" fill="#D3D3D3" fill-rule="evenodd" stroke="none" />
              <path d="M268.452 17.0453C268.452 7.63185 276.083 0.000732422 285.496 0.000732422C294.91 0.000732422 302.541 7.63185 302.541 17.0453C302.541 26.4588 294.91 34.0899 285.496 34.0899C276.083 34.0899 268.452 26.4588 268.452 17.0453Z" id="Oval-Copy-6" fill="#D3D3D3" fill-rule="evenodd" stroke="none" />
              <path d="M313.194 17.0448C313.194 7.63136 320.825 0.000244141 330.238 0.000244141C339.652 0.000244141 347.283 7.63136 347.283 17.0448C347.283 26.4583 339.652 34.0894 330.238 34.0894C320.825 34.0894 313.194 26.4583 313.194 17.0448Z" id="Oval-Copy-7" fill="#D3D3D3" fill-rule="evenodd" stroke="none" />
              <path d="M357.936 17.0451C357.936 7.6316 365.567 0.000488281 374.98 0.000488281C384.394 0.000488281 392.025 7.6316 392.025 17.0451C392.025 26.4585 384.394 34.0896 374.98 34.0896C365.567 34.0896 357.936 26.4585 357.936 17.0451Z" id="Oval-Copy-8" fill="#D3D3D3" fill-rule="evenodd" stroke="none" />
              <path d="M402.678 17.0453C402.678 7.63185 410.309 0.000732422 419.722 0.000732422C429.136 0.000732422 436.767 7.63185 436.767 17.0453C436.767 26.4588 429.136 34.0899 419.722 34.0899C410.309 34.0899 402.678 26.4588 402.678 17.0453Z" id="Oval-Copy-9" fill="#D3D3D3" fill-rule="evenodd" stroke="none" />
            </g>
            <g id="Group-Copy-4" transform="translate(0.00018310547 183.22974)">
              <path d="M178.968 17.0448C178.968 7.63136 186.599 0.000244141 196.012 0.000244141C205.426 0.000244141 213.057 7.63136 213.057 17.0448C213.057 26.4583 205.426 34.0894 196.012 34.0894C186.599 34.0894 178.968 26.4583 178.968 17.0448Z" id="Oval-Copy-4" fill="#D3D3D3" fill-rule="evenodd" stroke="none" />
              <path d="M223.71 17.0451C223.71 7.6316 231.341 0.000488281 240.754 0.000488281C250.168 0.000488281 257.799 7.6316 257.799 17.0451C257.799 26.4585 250.168 34.0896 240.754 34.0896C231.341 34.0896 223.71 26.4585 223.71 17.0451Z" id="Oval-Copy-5" fill="#D3D3D3" fill-rule="evenodd" stroke="none" />
              <path d="M268.452 17.0451C268.452 7.6316 276.083 0.000488281 285.496 0.000488281C294.91 0.000488281 302.541 7.6316 302.541 17.0451C302.541 26.4585 294.91 34.0896 285.496 34.0896C276.083 34.0896 268.452 26.4585 268.452 17.0451Z" id="Oval-Copy-6" fill="#D3D3D3" fill-rule="evenodd" stroke="none" />
              <path d="M313.194 17.0451C313.194 7.6316 320.825 0.000488281 330.239 0.000488281C339.652 0.000488281 347.283 7.6316 347.283 17.0451C347.283 26.4585 339.652 34.0896 330.239 34.0896C320.825 34.0896 313.194 26.4585 313.194 17.0451Z" id="Oval-Copy-7" fill="#D3D3D3" fill-rule="evenodd" stroke="none" />
              <path d="M357.936 17.0448C357.936 7.63136 365.567 0.000244141 374.98 0.000244141C384.394 0.000244141 392.025 7.63136 392.025 17.0448C392.025 26.4583 384.394 34.0894 374.98 34.0894C365.567 34.0894 357.936 26.4583 357.936 17.0448Z" id="Oval-Copy-8" fill="#D3D3D3" fill-rule="evenodd" stroke="none" />
              <path d="M402.678 17.0451C402.678 7.6316 410.309 0.000488281 419.723 0.000488281C429.136 0.000488281 436.767 7.6316 436.767 17.0451C436.767 26.4585 429.136 34.0896 419.723 34.0896C410.309 34.0896 402.678 26.4585 402.678 17.0451Z" id="Oval-Copy-9" fill="#D3D3D3" fill-rule="evenodd" stroke="none" />
            </g>
          </g>
          <g id="Group-5-Copy-4" transform="translate(491.45184 0.00024414062)" filter="url(#filter_1)">
            <g id="Group-Copy" transform="translate(0.00030517578 45.806152)">
              <path d="M0 17.0451C0 7.6316 7.63111 0.000488281 17.0446 0.000488281C26.458 0.000488281 34.0891 7.6316 34.0891 17.0451C34.0891 26.4585 26.458 34.0896 17.0446 34.0896C7.63111 34.0896 0 26.4585 0 17.0451Z" id="Oval" fill="#D3D3D3" fill-rule="evenodd" stroke="none" />
              <path d="M44.742 17.0451C44.742 7.6316 52.3731 0.000488281 61.7865 0.000488281C71.2 0.000488281 78.8311 7.6316 78.8311 17.0451C78.8311 26.4585 71.2 34.0896 61.7865 34.0896C52.3731 34.0896 44.742 26.4585 44.742 17.0451Z" id="Oval-Copy" fill="#D3D3D3" fill-rule="evenodd" stroke="none" />
              <path d="M89.484 17.0448C89.484 7.63136 97.1151 0.000244141 106.529 0.000244141C115.942 0.000244141 123.573 7.63136 123.573 17.0448C123.573 26.4583 115.942 34.0894 106.529 34.0894C97.1151 34.0894 89.484 26.4583 89.484 17.0448Z" id="Oval-Copy-2" fill="#D3D3D3" fill-rule="evenodd" stroke="none" />
            </g>
            <g id="Group-Copy-2" transform="translate(0.00018310547 91.6145)">
              <path d="M-6.10352e-05 17.0446C-6.10352e-05 7.63112 7.63105 0 17.0445 0C26.458 0 34.0891 7.63112 34.0891 17.0446C34.0891 26.458 26.458 34.0892 17.0445 34.0892C7.63105 34.0892 -6.10352e-05 26.458 -6.10352e-05 17.0446Z" id="Oval" fill="#D3D3D3" fill-rule="evenodd" stroke="none" />
              <path d="M44.7421 17.0446C44.7421 7.63112 52.3732 0 61.7867 0C71.2001 0 78.8312 7.63112 78.8312 17.0446C78.8312 26.458 71.2001 34.0892 61.7867 34.0892C52.3732 34.0892 44.7421 26.458 44.7421 17.0446Z" id="Oval-Copy" fill="#D3D3D3" fill-rule="evenodd" stroke="none" />
              <path d="M89.4839 17.0448C89.4839 7.63136 97.115 0.000244141 106.528 0.000244141C115.942 0.000244141 123.573 7.63136 123.573 17.0448C123.573 26.4583 115.942 34.0894 106.528 34.0894C97.115 34.0894 89.4839 26.4583 89.4839 17.0448Z" id="Oval-Copy-2" fill="#D3D3D3" fill-rule="evenodd" stroke="none" />
              <path d="M134.226 17.0446C134.226 7.63112 141.857 0 151.271 0C160.684 0 168.315 7.63112 168.315 17.0446C168.315 26.458 160.684 34.0892 151.271 34.0892C141.857 34.0892 134.226 26.458 134.226 17.0446Z" id="Oval-Copy-3" fill="#D3D3D3" fill-rule="evenodd" stroke="none" />
              <path d="M178.968 17.0446C178.968 7.63112 186.599 0 196.012 0C205.426 0 213.057 7.63112 213.057 17.0446C213.057 26.458 205.426 34.0892 196.012 34.0892C186.599 34.0892 178.968 26.458 178.968 17.0446Z" id="Oval-Copy-4" fill="#D3D3D3" fill-rule="evenodd" stroke="none" />
              <path d="M223.71 17.0446C223.71 7.63112 231.341 0 240.755 0C250.168 0 257.799 7.63112 257.799 17.0446C257.799 26.458 250.168 34.0892 240.755 34.0892C231.341 34.0892 223.71 26.458 223.71 17.0446Z" id="Oval-Copy-5" fill="#D3D3D3" fill-rule="evenodd" stroke="none" />
              <path d="M268.452 17.0453C268.452 7.63185 276.083 0.000732422 285.497 0.000732422C294.91 0.000732422 302.541 7.63185 302.541 17.0453C302.541 26.4588 294.91 34.0899 285.497 34.0899C276.083 34.0899 268.452 26.4588 268.452 17.0453Z" id="Oval-Copy-6" fill="#D3D3D3" fill-rule="evenodd" stroke="none" />
              <path d="M313.194 17.0448C313.194 7.63136 320.825 0.000244141 330.239 0.000244141C339.652 0.000244141 347.283 7.63136 347.283 17.0448C347.283 26.4583 339.652 34.0894 330.239 34.0894C320.825 34.0894 313.194 26.4583 313.194 17.0448Z" id="Oval-Copy-7" fill="#D3D3D3" fill-rule="evenodd" stroke="none" />
            </g>
            <g id="Group-Copy-3" transform="translate(9.1552734E-05 137.42139)">
              <path d="M3.05176e-05 17.0451C3.05176e-05 7.6316 7.63115 0.000488281 17.0446 0.000488281C26.4581 0.000488281 34.0892 7.6316 34.0892 17.0451C34.0892 26.4585 26.4581 34.0896 17.0446 34.0896C7.63115 34.0896 3.05176e-05 26.4585 3.05176e-05 17.0451Z" id="Oval" fill="#D3D3D3" fill-rule="evenodd" stroke="none" />
              <path d="M44.7421 17.0451C44.7421 7.6316 52.3732 0.000488281 61.7866 0.000488281C71.2001 0.000488281 78.8312 7.6316 78.8312 17.0451C78.8312 26.4585 71.2001 34.0896 61.7866 34.0896C52.3732 34.0896 44.7421 26.4585 44.7421 17.0451Z" id="Oval-Copy" fill="#D3D3D3" fill-rule="evenodd" stroke="none" />
              <path d="M89.4841 17.0446C89.4841 7.63111 97.1152 0 106.529 0C115.942 0 123.573 7.63111 123.573 17.0446C123.573 26.458 115.942 34.0891 106.529 34.0891C97.1152 34.0891 89.4841 26.458 89.4841 17.0446Z" id="Oval-Copy-2" fill="#D3D3D3" fill-rule="evenodd" stroke="none" />
              <path d="M134.226 17.0451C134.226 7.6316 141.857 0.000488281 151.271 0.000488281C160.684 0.000488281 168.315 7.6316 168.315 17.0451C168.315 26.4585 160.684 34.0896 151.271 34.0896C141.857 34.0896 134.226 26.4585 134.226 17.0451Z" id="Oval-Copy-3" fill="#D3D3D3" fill-rule="evenodd" stroke="none" />
              <path d="M178.968 17.0451C178.968 7.6316 186.599 0.000488281 196.012 0.000488281C205.426 0.000488281 213.057 7.6316 213.057 17.0451C213.057 26.4585 205.426 34.0896 196.012 34.0896C186.599 34.0896 178.968 26.4585 178.968 17.0451Z" id="Oval-Copy-4" fill="#D3D3D3" fill-rule="evenodd" stroke="none" />
              <path d="M223.71 17.0451C223.71 7.6316 231.341 0.000488281 240.754 0.000488281C250.168 0.000488281 257.799 7.6316 257.799 17.0451C257.799 26.4585 250.168 34.0896 240.754 34.0896C231.341 34.0896 223.71 26.4585 223.71 17.0451Z" id="Oval-Copy-5" fill="#D3D3D3" fill-rule="evenodd" stroke="none" />
              <path d="M268.452 17.0453C268.452 7.63184 276.083 0.000732422 285.497 0.000732422C294.91 0.000732422 302.541 7.63184 302.541 17.0453C302.541 26.4587 294.91 34.0899 285.497 34.0899C276.083 34.0899 268.452 26.4587 268.452 17.0453Z" id="Oval-Copy-6" fill="#D3D3D3" fill-rule="evenodd" stroke="none" />
              <path d="M313.194 17.0451C313.194 7.6316 320.825 0.000488281 330.239 0.000488281C339.652 0.000488281 347.283 7.6316 347.283 17.0451C347.283 26.4585 339.652 34.0896 330.239 34.0896C320.825 34.0896 313.194 26.4585 313.194 17.0451Z" id="Oval-Copy-7" fill="#D3D3D3" fill-rule="evenodd" stroke="none" />
              <path d="M357.936 17.0455C357.936 7.63209 365.567 0.000976562 374.981 0.000976562C384.394 0.000976562 392.025 7.63209 392.025 17.0455C392.025 26.459 384.394 34.0901 374.981 34.0901C365.567 34.0901 357.936 26.459 357.936 17.0455Z" id="Oval-Copy-8" fill="#D3D3D3" fill-rule="evenodd" stroke="none" />
              <path d="M402.678 17.0451C402.678 7.6316 410.309 0.000488281 419.722 0.000488281C429.136 0.000488281 436.767 7.6316 436.767 17.0451C436.767 26.4585 429.136 34.0896 419.722 34.0896C410.309 34.0896 402.678 26.4585 402.678 17.0451Z" id="Oval-Copy-9" fill="#D3D3D3" fill-rule="evenodd" stroke="none" />
              <path d="M447.42 17.0448C447.42 7.63135 455.051 0.000244141 464.465 0.000244141C473.878 0.000244141 481.509 7.63135 481.509 17.0448C481.509 26.4583 473.878 34.0894 464.465 34.0894C455.051 34.0894 447.42 26.4583 447.42 17.0448Z" id="Oval-Copy-10" fill="#D3D3D3" fill-rule="evenodd" stroke="none" />
            </g>
            <g id="Group-Copy-4" transform="translate(0 183.22827)">
              <path d="M3.05176e-05 17.0446C3.05176e-05 7.63111 7.63115 0 17.0446 0C26.4581 0 34.0892 7.63111 34.0892 17.0446C34.0892 26.458 26.4581 34.0891 17.0446 34.0891C7.63115 34.0891 3.05176e-05 26.458 3.05176e-05 17.0446Z" id="Oval" fill="#D3D3D3" fill-rule="evenodd" stroke="none" />
              <path d="M44.7422 17.0446C44.7422 7.63111 52.3733 0 61.7868 0C71.2002 0 78.8313 7.63111 78.8313 17.0446C78.8313 26.458 71.2002 34.0891 61.7868 34.0891C52.3733 34.0891 44.7422 26.458 44.7422 17.0446Z" id="Oval-Copy" fill="#D3D3D3" fill-rule="evenodd" stroke="none" />
              <path d="M89.4842 17.0451C89.4842 7.6316 97.1153 0.000488281 106.529 0.000488281C115.942 0.000488281 123.573 7.6316 123.573 17.0451C123.573 26.4585 115.942 34.0896 106.529 34.0896C97.1153 34.0896 89.4842 26.4585 89.4842 17.0451Z" id="Oval-Copy-2" fill="#D3D3D3" fill-rule="evenodd" stroke="none" />
              <path d="M134.226 17.0448C134.226 7.63135 141.857 0.000244141 151.271 0.000244141C160.684 0.000244141 168.315 7.63135 168.315 17.0448C168.315 26.4583 160.684 34.0894 151.271 34.0894C141.857 34.0894 134.226 26.4583 134.226 17.0448Z" id="Oval-Copy-3" fill="#D3D3D3" fill-rule="evenodd" stroke="none" />
              <path d="M178.968 17.0448C178.968 7.63135 186.599 0.000244141 196.013 0.000244141C205.426 0.000244141 213.057 7.63135 213.057 17.0448C213.057 26.4583 205.426 34.0894 196.013 34.0894C186.599 34.0894 178.968 26.4583 178.968 17.0448Z" id="Oval-Copy-4" fill="#D3D3D3" fill-rule="evenodd" stroke="none" />
              <path d="M223.71 17.0448C223.71 7.63135 231.341 0.000244141 240.755 0.000244141C250.168 0.000244141 257.799 7.63135 257.799 17.0448C257.799 26.4583 250.168 34.0894 240.755 34.0894C231.341 34.0894 223.71 26.4583 223.71 17.0448Z" id="Oval-Copy-5" fill="#D3D3D3" fill-rule="evenodd" stroke="none" />
              <path d="M268.452 17.0453C268.452 7.63184 276.083 0.000732422 285.497 0.000732422C294.91 0.000732422 302.541 7.63184 302.541 17.0453C302.541 26.4587 294.91 34.0899 285.497 34.0899C276.083 34.0899 268.452 26.4587 268.452 17.0453Z" id="Oval-Copy-6" fill="#D3D3D3" fill-rule="evenodd" stroke="none" />
              <path d="M313.194 17.0448C313.194 7.63135 320.825 0.000244141 330.238 0.000244141C339.652 0.000244141 347.283 7.63135 347.283 17.0448C347.283 26.4583 339.652 34.0894 330.238 34.0894C320.825 34.0894 313.194 26.4583 313.194 17.0448Z" id="Oval-Copy-7" fill="#D3D3D3" fill-rule="evenodd" stroke="none" />
              <path d="M357.936 17.0451C357.936 7.6316 365.567 0.000488281 374.981 0.000488281C384.394 0.000488281 392.025 7.6316 392.025 17.0451C392.025 26.4585 384.394 34.0896 374.981 34.0896C365.567 34.0896 357.936 26.4585 357.936 17.0451Z" id="Oval-Copy-8" fill="#D3D3D3" fill-rule="evenodd" stroke="none" />
              <path d="M402.678 17.0448C402.678 7.63135 410.309 0.000244141 419.723 0.000244141C429.136 0.000244141 436.767 7.63135 436.767 17.0448C436.767 26.4583 429.136 34.0894 419.723 34.0894C410.309 34.0894 402.678 26.4583 402.678 17.0448Z" id="Oval-Copy-9" fill="#D3D3D3" fill-rule="evenodd" stroke="none" />
              <path d="M447.42 17.0453C447.42 7.63184 455.051 0.000732422 464.465 0.000732422C473.878 0.000732422 481.509 7.63184 481.509 17.0453C481.509 26.4587 473.878 34.0899 464.465 34.0899C455.051 34.0899 447.42 26.4587 447.42 17.0453Z" id="Oval-Copy-10" fill="#D3D3D3" fill-rule="evenodd" stroke="none" />
            </g>
          </g>
        </g>
        <path d="M1077.7 306.2L-0.300293 306.2L-0.300293 0.199585L1077.7 0.199677L1077.7 306.2Z" id="Rectangle-33" fill="url(#gradient_1)" fill-rule="evenodd" stroke="none" />
      </g>
    </g>
  </g>
</svg>